<?xml version="1.0" encoding="UTF-8"?>
<svg version="1.1" xmlns="http://www.w3.org/2000/svg" width="980" height="980">
<path d="M0 0 C323.4 0 646.8 0 980 0 C980 323.4 980 646.8 980 980 C656.6 980 333.2 980 0 980 C0 656.6 0 333.2 0 0 Z " fill="#FDFDFD" transform="translate(0,0)"/>
<path d="M0 0 C323.4 0 646.8 0 980 0 C980 323.4 980 646.8 980 980 C656.6 980 333.2 980 0 980 C0 656.6 0 333.2 0 0 Z M62.4375 163.5 C61.65246094 164.2528125 60.86742187 165.005625 60.05859375 165.78125 C48.33928895 178.41230337 49.28071979 192.40941541 49.35162354 208.66539001 C49.34442621 211.19911596 49.33505788 213.7328365 49.32371116 216.26654726 C49.3041392 221.7658044 49.30003569 227.2647341 49.30976486 232.76401138 C49.32419403 240.94174272 49.31000848 249.11925328 49.29039069 257.29696484 C49.25437606 272.75306901 49.25203413 288.20906681 49.26001683 303.66520231 C49.2659785 315.60083978 49.26274991 327.53644357 49.25304413 339.47207832 C49.25168485 341.18792936 49.25032767 342.90378039 49.24897258 344.61963143 C49.2469201 347.20536034 49.24486155 349.79108924 49.24278099 352.37681812 C49.22365167 376.41087962 49.2145811 400.44492828 49.22665787 424.47899532 C49.22711142 425.38465149 49.22756497 426.29030766 49.22803226 427.22340795 C49.23177212 434.57765178 49.23577217 441.93189548 49.23979373 449.28613916 C49.25525478 477.97394846 49.23896218 506.66158368 49.19726562 535.34936523 C49.15046789 567.5924867 49.12690349 599.8355021 49.13802886 632.07865912 C49.13914025 635.51714136 49.14017618 638.95562363 49.14116669 642.39410591 C49.14142723 643.2407258 49.14168777 644.08734569 49.1419562 644.95962073 C49.1454236 657.73378783 49.13080916 670.50785273 49.10706329 683.28199577 C49.08009516 697.81037275 49.07770413 712.33851668 49.10792437 726.86689227 C49.12410898 734.99392786 49.1210661 743.12041399 49.09010117 751.24740969 C49.06914063 757.31987939 49.08487885 763.39167622 49.11477134 769.4641325 C49.12119502 771.9175539 49.11583971 774.3710408 49.09742382 776.82440149 C48.98636229 792.74183773 49.83526286 803.37319694 61 815.5625 C70.84816409 824.55841912 80.93580137 825.29813291 93.78110409 825.25447559 C95.18786253 825.25686732 96.59461971 825.26013371 98.00137433 825.26419219 C101.87008353 825.27281041 105.73869567 825.26898649 109.60740635 825.26313647 C113.81516587 825.25896689 118.02290766 825.2663677 122.23066288 825.27228898 C129.60636079 825.28105677 136.98203094 825.28236103 144.35773277 825.27878571 C155.32561943 825.27348309 166.29347917 825.27956954 177.26136291 825.28786864 C197.98812578 825.3031205 218.71487646 825.30481251 239.44164377 825.30234561 C255.4444303 825.30051403 271.44721282 825.30226972 287.44999886 825.30657005 C289.74786669 825.30717245 292.04573452 825.30777365 294.34360235 825.30837366 C297.80611937 825.30928089 301.2686364 825.31018956 304.73115342 825.31110601 C336.92945717 825.31953728 369.12775941 825.32387 401.32606411 825.31969929 C403.14732388 825.31946472 403.14732388 825.31946472 405.00537678 825.31922542 C411.15950546 825.31841962 417.31363414 825.31757385 423.46776282 825.31671212 C425.30115878 825.31645549 425.30115878 825.31645549 427.17159304 825.31619367 C429.64330777 825.31584702 432.11502251 825.31549849 434.58673725 825.31514808 C473.05498559 825.30978972 511.52321101 825.31772388 549.99145508 825.33618164 C593.19514305 825.35688719 636.39881682 825.36762718 679.60251004 825.36360615 C684.20706848 825.3632108 688.81162693 825.36284925 693.41618538 825.36250877 C694.54997311 825.36241804 695.68376085 825.36232731 696.85190579 825.36223383 C713.9836428 825.3610668 731.11536549 825.3677241 748.24709892 825.37832069 C767.72474025 825.39035591 787.20234999 825.39195099 806.67999177 825.37953053 C817.58490987 825.37288832 828.48975251 825.3745643 839.39466462 825.38811904 C846.67478284 825.39634016 853.95484432 825.39369652 861.2349579 825.38214377 C865.38554736 825.37586413 869.53598919 825.37434614 873.68657034 825.38600711 C877.46321746 825.39652011 881.2395914 825.39320271 885.01622377 825.37890258 C887.01278624 825.37489137 889.00936179 825.3855778 891.0058963 825.39687964 C898.00045231 825.35441911 903.50494726 824.64140653 910 822 C910 821.34 910 820.68 910 820 C910.85271484 819.85884766 910.85271484 819.85884766 911.72265625 819.71484375 C917.15402502 818.00997156 921.59641233 813.16611367 924.625 808.4921875 C928.92132363 800.12970044 930.29723206 792.94778313 930.25726891 783.64279556 C930.26252802 782.09076162 930.26252802 782.09076162 930.26789337 780.50737345 C930.27721995 777.02962224 930.27228073 773.55203802 930.26742554 770.07427979 C930.27116115 767.5599484 930.27576232 765.04561819 930.28115618 762.53128982 C930.29085121 757.05904579 930.29429969 751.5868524 930.29224396 746.11460114 C930.28919442 737.97699851 930.29751691 729.83943505 930.30799321 721.70184005 C930.3273395 706.32225905 930.33296167 690.94269138 930.33410732 675.56309965 C930.33502626 663.68645042 930.33914217 651.80980641 930.34550858 639.93315887 C930.34730365 636.51498978 930.34908328 633.09682068 930.35085833 629.67865157 C930.35130043 628.82889393 930.35174252 627.97913628 930.35219802 627.10362841 C930.36450721 603.19996709 930.37239906 579.2963076 930.37151146 555.39264297 C930.3714803 554.49133773 930.37144914 553.59003249 930.37141704 552.66141496 C930.37125083 548.09318328 930.37105274 543.52495159 930.37084763 538.95671991 C930.37080774 538.04944626 930.37076785 537.14217261 930.37072675 536.20740582 C930.37064587 534.37267717 930.37056228 532.53794852 930.37047596 530.70321987 C930.36925043 502.15726944 930.38426375 473.61136652 930.41162109 445.06542969 C930.4423415 412.99707585 930.45955362 380.92875323 930.45769465 348.86038375 C930.45754539 345.44095723 930.45744797 342.02153071 930.45738602 338.60210419 C930.45736271 337.76014955 930.4573394 336.91819491 930.45731538 336.0507265 C930.45725384 322.50094792 930.47002606 308.95121059 930.48725055 295.40144428 C930.50420338 281.78372769 930.5061836 268.16607143 930.4930319 254.54835013 C930.48564044 246.45881882 930.48930652 238.36947082 930.50891658 230.27995893 C930.52232347 224.23881303 930.51481114 218.19788335 930.49917014 212.15673491 C930.4960896 209.71329101 930.49977205 207.2698273 930.51089029 204.82640675 C930.52500665 201.5041359 930.51442762 198.18280795 930.49777794 194.860569 C930.5077143 193.91281636 930.51765066 192.96506373 930.52788812 191.98859131 C930.42458449 182.23283792 927.59270751 173.51173946 920.6875 166.5 C920.23955078 166.00242188 919.79160156 165.50484375 919.33007812 164.9921875 C915.9336157 161.39875908 912.57208511 159.74561296 908 158 C907.06120238 157.48506487 906.12240477 156.97012974 905.15515874 156.43959051 C901.78693232 154.90278454 899.67121775 154.62433647 895.99792898 154.62280184 C894.80925098 154.61503506 893.62057298 154.60726828 892.39587444 154.59926614 C891.09629474 154.60600379 889.79671504 154.61274144 888.45775414 154.61968327 C887.05252714 154.6162496 885.64730284 154.6115027 884.24208421 154.6055623 C880.36824701 154.59302053 876.49462924 154.59921701 872.62079091 154.60839598 C868.41094103 154.61508974 864.20112961 154.60444771 859.99128783 154.59600013 C852.60873218 154.58360745 845.22624007 154.58243199 837.84367752 154.58855057 C826.86540603 154.59762498 815.88719351 154.58962293 804.90892655 154.57825933 C785.30232632 154.55856655 765.6957525 154.5562501 746.08914474 154.56145453 C728.92755596 154.56600779 711.76597764 154.56541744 694.60438919 154.55961418 C692.30431917 154.55885732 690.00424914 154.55810134 687.70417912 154.55734624 C684.23834897 154.55620107 680.77251883 154.55505119 677.30668869 154.55388699 C645.0719529 154.54317748 612.83722061 154.53846123 580.60248375 154.54635715 C578.77876513 154.54680291 578.77876513 154.54680291 576.9182037 154.54725768 C567.04434741 154.54970673 557.17049116 154.55231826 547.29663491 154.55494181 C508.7883976 154.56504236 470.28020389 154.55669431 431.77197266 154.53344727 C388.52468543 154.50738165 345.27742445 154.4945251 302.03012908 154.50163502 C297.41958786 154.50235109 292.80904663 154.50302548 288.1985054 154.50367546 C286.49561298 154.50393017 286.49561298 154.50393017 284.75831868 154.50419003 C267.61100842 154.50649432 250.4637225 154.49850972 233.31641769 154.48538399 C213.815382 154.47048333 194.31440342 154.4696152 174.81336896 154.4874549 C163.89796281 154.497029 152.98268981 154.49556043 142.06729251 154.47822021 C134.77627989 154.46774576 127.48536891 154.47180995 120.19436633 154.48770025 C116.03994991 154.49634769 111.88579477 154.49871859 107.73139159 154.48343093 C103.94769621 154.46963888 100.16448547 154.47444 96.38081821 154.49371612 C94.38778388 154.49918064 92.39472472 154.48514614 90.40173906 154.47018477 C80.16998189 154.55312904 70.00061481 156.02646523 62.4375 163.5 Z " fill="#FEFEFE" transform="translate(0,0)"/>
<path d="M0 0 C1.41170444 -0.00313392 2.82340645 -0.00758102 4.23510313 -0.0132131 C8.10824003 -0.0248691 11.98115184 -0.01791934 15.85428498 -0.00787924 C20.070234 -0.00025911 24.28614891 -0.01005283 28.50209308 -0.01760924 C35.88898192 -0.02844082 43.27580497 -0.02811775 50.66269684 -0.02046776 C61.64702108 -0.00912307 72.63128981 -0.01492003 83.61561367 -0.02409268 C103.23213892 -0.03989394 122.84863487 -0.03851927 142.46516291 -0.02985594 C159.62929637 -0.02231275 176.79341908 -0.02033756 193.95755386 -0.02392387 C195.09557277 -0.02415303 196.23359168 -0.02438218 197.40609601 -0.02461828 C202.0255061 -0.02555228 206.64491619 -0.02650747 211.26432627 -0.02749758 C254.60371277 -0.0366761 297.94308059 -0.02835131 341.2824642 -0.01220688 C379.80471733 0.00203394 418.32694071 0.00075301 456.84919357 -0.01358986 C500.11476242 -0.02964489 543.38031477 -0.03602904 586.64588618 -0.02675307 C591.25569582 -0.02579089 595.86550545 -0.02485237 600.47531509 -0.02392387 C601.61039525 -0.02368664 602.7454754 -0.02344941 603.91495192 -0.02320499 C621.07298135 -0.01978929 638.23099886 -0.02378942 655.38902664 -0.03136253 C674.89086216 -0.03992714 694.39266376 -0.03782379 713.89449504 -0.0215203 C724.81560462 -0.01269204 735.7366408 -0.01216433 746.65774853 -0.02345882 C753.94476303 -0.03016547 761.23171845 -0.02603659 768.51872417 -0.01294452 C772.67567486 -0.00578119 776.83247928 -0.00342377 780.98942557 -0.01416247 C784.76831263 -0.02382538 788.54692314 -0.01977721 792.3257899 -0.00462049 C794.33080371 -0.00015623 796.33583364 -0.01045225 798.34082317 -0.02128333 C799.53001362 -0.01377277 800.71920407 -0.00626222 801.94443059 0.00147593 C802.96698589 0.00167921 803.9895412 0.00188248 805.04308303 0.00209192 C808.50929117 0.44994091 810.89782147 1.70905891 813.94880295 3.37752342 C815.61942795 3.96533592 815.61942795 3.96533592 817.32380295 4.56502342 C824.70462193 7.70023856 830.60731974 15.24125503 833.94880295 22.37752342 C836.0077142 28.25265821 836.23268591 33.53699077 836.20607185 39.73193455 C836.20957793 40.76632425 836.213084 41.80071395 836.21669632 42.86644879 C836.22602289 46.3431907 836.22108367 49.81976557 836.21622849 53.29651451 C836.21996411 55.8101332 836.22456527 58.32375073 836.22995913 60.8373664 C836.23965417 66.30808009 836.24310263 71.77874312 836.24104691 77.24946404 C836.23799735 85.38484455 836.24631991 93.5201859 836.25679616 101.6555588 C836.27614273 117.03126075 836.28176463 132.40694937 836.28291027 147.78266206 C836.28382924 159.65691902 836.28794529 171.53117076 836.29431152 183.40542603 C836.29610661 186.82301785 836.29788623 190.24060968 836.29966128 193.65820152 C836.30032442 194.93262925 836.30032442 194.93262925 836.30100096 196.23280301 C836.31331032 220.13289093 836.321202 244.03297704 836.32031441 267.93306828 C836.32028325 268.8342483 836.32025209 269.73542833 836.32021999 270.66391684 C836.32005378 275.23150056 836.31985569 279.79908428 836.31965058 284.36666801 C836.31959074 285.72738168 836.31959074 285.72738168 836.3195297 287.11558452 C836.31944882 288.95004824 836.31936523 290.78451195 836.31927891 292.61897567 C836.31805349 321.15822225 836.33306459 349.6974213 836.36042404 378.23665428 C836.39114808 410.29879177 836.40835633 442.36089804 836.4064976 474.42305118 C836.40634834 477.84221478 836.40625092 481.26137839 836.40618896 484.68054199 C836.406154 485.94337281 836.406154 485.94337281 836.40611833 487.23171537 C836.4060568 500.77757713 836.41882645 514.32339762 836.43605349 527.86924711 C836.45301089 541.48474059 836.45498299 555.10017372 836.44183485 568.71567192 C836.4344463 576.80277121 836.43810074 584.8896871 836.45771953 592.97676694 C836.47113566 599.01787899 836.46360608 605.05877502 836.44797309 611.09988961 C836.44489476 613.54200542 836.44856677 615.98414109 836.45969324 618.42623349 C836.58565306 648.03491075 836.58565306 648.03491075 825.94880295 659.37752342 C819.8973008 665.37752342 819.8973008 665.37752342 815.94880295 665.37752342 C815.94880295 666.03752342 815.94880295 666.69752342 815.94880295 667.37752342 C808.19305814 670.53095172 801.36374457 670.80030218 793.04744434 670.75504684 C791.63982131 670.75817984 790.23220071 670.76262626 788.82458547 670.76825994 C784.9580913 670.77992924 781.09182222 670.77295914 777.22533177 670.76292608 C773.01826263 670.75531235 768.81122785 670.76509718 764.60416359 670.77265608 C757.23119576 670.78349248 749.85829382 670.78316163 742.48532295 670.7755146 C731.521469 670.76417408 720.55767071 670.76996479 709.59381715 670.77913952 C690.01290201 670.79494494 670.43201622 670.79356427 650.85109829 670.78490279 C633.7150175 670.77735987 616.57894748 670.77538426 599.44286537 670.77897072 C598.30674457 670.77919987 597.17062377 670.77942903 596.00007506 670.77966513 C591.38832555 670.78059913 586.77657605 670.78155432 582.16482655 670.78254442 C538.89081429 670.79172424 495.61682073 670.78339667 452.34281136 670.76725373 C413.88781611 670.75301757 375.43285067 670.75428967 336.97785568 670.7686367 C293.78513616 670.78469741 250.59243317 670.79107229 207.39971107 670.78179991 C202.79599282 670.78083774 198.19227455 670.77989922 193.58855629 670.77897072 C192.45498248 670.77873349 191.32140867 670.77849625 190.15348413 670.77825183 C173.02794117 670.774838 155.90241014 670.7788329 138.77686882 670.78640938 C119.3054996 670.79498066 99.83416434 670.79285657 80.36279935 670.77656715 C69.46253198 670.76774922 58.56233815 670.76719632 47.66207267 670.77850567 C40.38381008 670.78522488 33.10560653 670.7810605 25.8273527 670.76799136 C21.67866387 670.7608455 17.53012131 670.75843468 13.38143701 670.76920931 C9.60535205 670.77891634 5.82954279 670.7747601 2.05347783 670.75966733 C0.05964509 670.75523287 -1.93420394 670.76546063 -3.92801198 670.77633017 C-16.34161465 670.6984414 -24.95654502 668.25046758 -33.92619705 659.56111717 C-41.45281571 651.53164253 -44.81427751 643.55647556 -44.68319607 632.59708595 C-44.69454627 631.03107765 -44.69454627 631.03107765 -44.70612577 629.43343282 C-44.72534668 625.94171582 -44.70905052 622.45109042 -44.69284439 618.95937157 C-44.69932302 616.428085 -44.70797748 613.89680322 -44.71861869 611.36553073 C-44.73667655 605.86537441 -44.73921686 600.36554966 -44.72797394 594.86538124 C-44.71130007 586.68623868 -44.7232293 578.50731004 -44.74068179 570.32817808 C-44.77087041 555.71814923 -44.77231731 541.1082233 -44.76132877 526.49817357 C-44.75173783 513.71014896 -44.75102843 500.92216382 -44.7592144 488.13413811 C-44.7602802 486.41830499 -44.76134575 484.70247188 -44.76241103 482.98663877 C-44.76403212 480.40096826 -44.76566442 477.81529777 -44.76732406 475.22962729 C-44.78257995 451.19128176 -44.78808512 427.15294947 -44.77272701 403.11460304 C-44.77214824 402.20854006 -44.77156948 401.30247708 -44.77097317 400.36895764 C-44.76620854 393.01126382 -44.76115054 385.6535702 -44.75607544 378.29587659 C-44.73648717 349.6016867 -44.74568006 320.90763756 -44.77849197 292.21346092 C-44.81528777 259.96705132 -44.83236255 227.72072412 -44.8190797 195.47429347 C-44.81772223 192.0349196 -44.81642216 188.59554571 -44.81515312 185.1561718 C-44.81482516 184.30932633 -44.81449719 183.46248086 -44.81415929 182.58997341 C-44.80958478 169.81408357 -44.82020882 157.03826417 -44.8384037 144.26238823 C-44.85904601 129.72924994 -44.85842662 115.19628728 -44.8297713 100.66315892 C-44.81435265 92.53417812 -44.81535733 84.40559705 -44.84029834 76.27663769 C-44.85706967 70.20087381 -44.84234774 64.12560978 -44.81552682 58.04986438 C-44.80952969 55.5963671 -44.81360263 53.14281966 -44.82889005 50.68936267 C-44.91936168 35.02514432 -44.74319179 22.18199906 -33.48869705 10.19002342 C-23.65363695 1.02115277 -12.99708706 -0.07072045 0 0 Z M-21.05119705 26.37752342 C-24.3906709 32.09686984 -24.47719856 37.21910582 -24.43151379 43.64940357 C-24.43617371 44.67486142 -24.44083362 45.70031926 -24.44563475 46.75685158 C-24.45761383 50.20324652 -24.44817781 53.64924937 -24.43887711 57.09564781 C-24.44304873 59.58736952 -24.44852529 62.07908934 -24.45519692 64.57080561 C-24.46666346 69.99358978 -24.46877345 75.41625394 -24.46264648 80.83904457 C-24.4535598 88.90291913 -24.46158391 96.96671361 -24.47293772 105.03058202 C-24.49261459 119.43251338 -24.49495011 133.83440877 -24.48974252 148.23635036 C-24.48518727 160.84026783 -24.48578213 173.44417106 -24.49158287 186.04808807 C-24.49233973 187.73804765 -24.49309571 189.42800722 -24.49385082 191.11796679 C-24.49499599 193.66450708 -24.49614587 196.21104736 -24.49731006 198.75758764 C-24.50801673 222.43619566 -24.51273856 246.11479892 -24.5048399 269.79340839 C-24.50454272 270.68619213 -24.50424555 271.57897587 -24.50393937 272.49881366 C-24.50149038 279.74908637 -24.49887882 286.99935902 -24.49625524 294.24963167 C-24.48615179 322.53373988 -24.4945094 350.81778873 -24.51774979 379.10188866 C-24.54381264 410.87246828 -24.55667298 442.64301217 -24.54956204 474.41360289 C-24.54884596 477.80011625 -24.54817158 481.18662963 -24.54752159 484.57314301 C-24.54735178 485.40700101 -24.54718197 486.24085901 -24.54700702 487.09998544 C-24.54470256 499.69577129 -24.55268801 512.29152399 -24.56581306 524.8873024 C-24.58070998 539.20911432 -24.58158669 553.53084846 -24.56374215 567.85265868 C-24.55416502 575.86949876 -24.55564273 583.88615754 -24.57297684 591.90298559 C-24.58467378 597.884698 -24.57552093 603.86618533 -24.55815447 609.84789199 C-24.55437157 612.27109222 -24.55738174 614.69431425 -24.56776612 617.11749517 C-24.58085687 620.40526731 -24.5694223 623.69207223 -24.5517683 626.97980213 C-24.56141881 627.92580974 -24.57106933 628.87181734 -24.58101228 629.84649184 C-24.50460503 636.75260462 -23.04196766 642.38675281 -18.05119705 647.37752342 C-11.36931274 650.04680994 -4.57063244 649.65745453 2.53435898 649.63479233 C3.93203022 649.63748696 5.32970001 649.6410555 6.72736704 649.6454168 C10.57549129 649.65487525 14.42352089 649.65187401 18.27164979 649.64686125 C22.45533052 649.64359623 26.63899095 649.6518758 30.82266521 649.6586796 C38.15757333 649.6689921 45.49245504 649.67182123 52.82736969 649.66976738 C63.73451533 649.6667207 74.6416317 649.6750339 85.54877165 649.68551663 C106.16008912 649.70487217 126.77139665 649.7104854 147.38272214 649.71163075 C163.29544701 649.71254923 179.20816797 649.71666276 195.12089157 649.723032 C199.6984682 649.72482703 204.27604484 649.72660666 208.85362148 649.72838175 C210.56052227 649.7290449 210.56052227 649.7290449 212.3019059 649.72972144 C244.31480452 649.74203184 276.32770178 649.74992235 308.34060287 649.74903488 C310.15151587 649.74898815 310.15151587 649.74898815 311.99901297 649.74894047 C318.11824566 649.74877425 324.23747834 649.74857616 330.35671103 649.74837105 C331.57205504 649.74833116 332.78739904 649.74829127 334.03957166 649.74825017 C336.49729248 649.7481693 338.95501331 649.7480857 341.41273414 649.74799939 C379.6659832 649.74677339 417.91919683 649.76179514 456.17243576 649.78914452 C499.12962252 649.81984421 542.08678599 649.83707834 585.04398441 649.83521807 C589.62156105 649.8350688 594.19913769 649.83497139 598.77671432 649.83490944 C599.90386765 649.83488613 601.03102098 649.83486282 602.19233047 649.83483881 C620.35486679 649.83477718 638.51737242 649.84756513 656.6798996 649.86477397 C674.9217587 649.88170096 693.16357274 649.88372729 711.40543532 649.87055533 C722.25080382 649.86314699 733.09603573 649.8668802 743.94138984 649.88644001 C751.17929545 649.89839398 758.4171016 649.89590027 765.65500255 649.88149901 C769.78317452 649.87369716 773.9110812 649.87229508 778.039235 649.88841371 C781.79324702 649.90294366 785.54677219 649.89913241 789.30076234 649.88056598 C791.29004155 649.87548822 793.27934112 649.89007452 795.26856768 649.90541154 C804.3534429 649.8333474 804.3534429 649.8333474 811.94880295 645.37752342 C816.27798218 639.71693238 816.51985119 633.89232785 816.4493742 626.9954195 C816.45488837 625.97019659 816.46040253 624.94497368 816.46608379 623.88868341 C816.47969257 620.44900394 816.46477361 617.01004536 816.45000839 613.57037926 C816.45390073 611.08120581 816.45954063 608.59203458 816.46677929 606.10286862 C816.47847353 600.68874186 816.47772568 595.27483671 816.4659996 589.86071396 C816.44861055 581.80982596 816.45411869 573.75906663 816.46416651 565.70817196 C816.48135942 551.32951111 816.47581715 536.9509265 816.46080933 522.57226722 C816.44776093 509.98994653 816.44256093 497.40765228 816.44512749 484.82532501 C816.4452879 483.99092369 816.44544832 483.15652238 816.4456136 482.29683617 C816.44627717 478.90979614 816.44697958 475.52275611 816.44773894 472.1357161 C816.45476381 440.35955158 816.43926866 408.58343365 816.41311548 376.80728099 C816.38999811 348.5700197 816.38461294 320.33280962 816.39484787 292.095541 C816.39744984 284.86444634 816.40003484 277.63335169 816.40244579 270.40225697 C816.40289196 269.06694718 816.40289196 269.06694718 816.40334715 267.70466144 C816.41096001 244.11565632 816.40455173 220.52665541 816.39374977 196.93765217 C816.39260196 194.3998226 816.39145878 191.86199302 816.39032295 189.32416344 C816.3895677 187.64060716 816.38880206 185.95705089 816.38802594 184.27349462 C816.38236498 171.69774308 816.38369933 159.12200479 816.38825417 146.5462532 C816.39335877 132.24932926 816.38752316 117.95245494 816.36735987 103.65554338 C816.35636279 95.65185155 816.35359028 87.64825725 816.3626484 79.64456242 C816.36847173 73.67445887 816.35866027 67.70449034 816.34264875 61.73440088 C816.33859084 59.31461533 816.33962647 56.89481499 816.34616762 54.47503489 C816.35427928 51.1944215 816.34405197 47.91436375 816.32911968 44.6337862 C816.33585733 43.68704178 816.34259498 42.74029735 816.34953681 41.7648637 C816.28734871 34.7345213 815.18761721 29.95215982 810.44880295 24.50252342 C806.75233129 21.36052252 804.01492389 21.25199173 799.32524747 21.24757159 C798.14464083 21.24404317 796.9640342 21.24051475 795.74765161 21.23687941 C794.44168447 21.23807718 793.13571734 21.23927496 791.79017544 21.24050903 C790.390043 21.23825368 788.98991121 21.23556254 787.58978036 21.23247319 C783.71620331 21.2252181 779.84264561 21.22424393 775.96906269 21.22425042 C771.76473569 21.22318336 767.56041737 21.21639571 763.35609514 21.21034372 C755.0056792 21.19925472 746.65526748 21.19361617 738.30484548 21.18963484 C728.30768692 21.18463114 718.31053655 21.17390456 708.31338282 21.16315311 C684.14856616 21.13750787 659.98374631 21.12248548 635.81891994 21.10964264 C627.81791855 21.10538971 619.8169174 21.10082404 611.8159163 21.09605932 C569.3003165 21.07080315 526.78471633 21.04874869 484.26911068 21.03633118 C474.41616629 21.03340971 464.56322192 21.03044222 454.71027756 21.02742577 C452.87407086 21.0268694 452.87407086 21.0268694 451.00076909 21.0263018 C411.29125149 21.0141402 371.58177815 20.98318642 331.87228135 20.94150424 C291.06999229 20.89875289 250.26772661 20.87209486 209.46541454 20.86685646 C203.70710848 20.86611597 197.94880246 20.86520528 192.19049644 20.86419868 C191.05715709 20.86400807 189.92381773 20.86381746 188.75613476 20.86362106 C170.48902787 20.86010232 152.22197627 20.83978076 133.9548897 20.81340205 C115.607258 20.7873057 97.25969043 20.77950952 78.91204282 20.79050334 C68.00201987 20.79649627 57.09221391 20.78848408 46.18222365 20.7606725 C38.90236385 20.7434827 31.62265281 20.74431664 24.34278999 20.76004019 C20.18971631 20.76849054 16.03705812 20.76889935 11.88402214 20.74742873 C8.10850002 20.7280658 4.33372775 20.73156496 0.55822648 20.75358222 C-1.44495078 20.7592912 -3.44815156 20.74036858 -5.45123896 20.72055393 C-14.47496424 20.79942738 -14.47496424 20.79942738 -21.05119705 26.37752342 Z " fill="#090909" transform="translate(94.05119705200195,154.6224765777588)"/>
<path d="M0 0 C1.09707275 0.23348145 1.09707275 0.23348145 2.21630859 0.47167969 C32.6889289 7.14860196 58.94476366 27.55684627 75.640625 53.5546875 C80.60279676 61.59942051 84.8901379 69.60456853 87.32421875 78.7734375 C87.91237125 80.9852766 87.91237125 80.9852766 88.98046875 82.7890625 C99.6257074 105.87413941 93.69424712 139.14670397 85.32836914 161.91040039 C80.73356524 173.76692234 74.27465366 184.3283269 66 194 C65.30132812 194.81984375 64.60265625 195.6396875 63.8828125 196.484375 C59.00677832 202.05216489 53.91937443 207.51979694 48 212 C47.34 212 46.68 212 46 212 C45.67 212.99 45.34 213.98 45 215 C42.9343929 216.37309142 40.92457365 217.57560373 38.75 218.75 C38.11739258 219.09780518 37.48478516 219.44561035 36.83300781 219.80395508 C35.52194664 220.52373093 34.20909795 221.2402599 32.89453125 221.95361328 C31.18013059 222.90051035 29.4942728 223.89863866 27.8125 224.90234375 C19.59030397 229.69512894 11.35093901 232.28852685 2.16210938 234.47998047 C0.22027007 234.94702177 -1.7110869 235.45714661 -3.640625 235.97265625 C-27.13550909 241.63566082 -53.17907926 238.07119419 -75 228 C-75.9283667 227.58476074 -75.9283667 227.58476074 -76.87548828 227.16113281 C-87.00457476 222.59403313 -95.44825676 217.09227789 -104 210 C-104.8765625 209.31808594 -105.753125 208.63617188 -106.65625 207.93359375 C-108.79249156 206.17119446 -110.52996086 204.42235402 -112.3125 202.3125 C-114.13720401 200.16068923 -115.95721432 198.0446231 -117.91015625 196.0078125 C-123.66265453 189.94653201 -127.81465155 183.19708148 -131.88916016 175.94946289 C-132.64451661 174.62385382 -133.42670918 173.31325699 -134.23193359 172.01733398 C-138.20650746 165.40855598 -140.20854233 158.46278407 -142.25 151.0625 C-142.600625 149.85142578 -142.95125 148.64035156 -143.3125 147.39257812 C-145.23113958 140.57771791 -146.67327391 134.07552939 -147 127 C-147.04366699 126.10434326 -147.08733398 125.20868652 -147.13232422 124.28588867 C-148.09454353 98.45451254 -142.59320557 75.21032696 -129 53 C-128.608125 52.34386719 -128.21625 51.68773437 -127.8125 51.01171875 C-126.75 49.3125 -126.75 49.3125 -125 47 C-124.34 47 -123.68 47 -123 47 C-122.76925781 46.29101562 -122.53851563 45.58203125 -122.30078125 44.8515625 C-113.08783073 24.6550043 -85.80769623 10.55904257 -66.296875 3.12109375 C-61.46337461 1.47747454 -56.72639551 -0.08865496 -51.625 -0.5625 C-48.1963063 -0.59793141 -48.1963063 -0.59793141 -47 -2 C-31.56838071 -4.89213748 -15.21070485 -3.39831731 0 0 Z " fill="#080808" transform="translate(330,273)"/>
<path d="M0 0 C1.19710602 -0.00619858 2.39421204 -0.01239716 3.62759399 -0.01878357 C6.15764554 -0.0258816 8.6877438 -0.02270814 11.21777344 -0.01000977 C15.08095759 0.00383242 18.94170872 -0.03019251 22.8046875 -0.06835938 C25.26562559 -0.06931081 27.7265667 -0.06745043 30.1875 -0.0625 C31.91436539 -0.08238731 31.91436539 -0.08238731 33.67611694 -0.10267639 C39.53234201 -0.03499684 43.68400583 0.28853338 48.34317017 4.00648499 C52.04971157 8.1860027 53.10092468 11.45227648 53.08732605 17.01411438 C53.09351204 18.96809395 53.09351204 18.96809395 53.099823 20.96154785 C53.08920685 22.39795131 53.07830244 23.83435265 53.06713867 25.27075195 C53.06629213 26.78871138 53.06676808 28.30667203 53.06846619 29.82463074 C53.0693265 33.94001375 53.05169492 38.05513415 53.03074431 42.17045617 C53.01198357 46.47325828 53.01022755 50.7760665 53.00666809 55.0789032 C52.99734586 63.22446719 52.97272966 71.36991031 52.94261962 79.51542109 C52.90908117 88.78982962 52.892591 98.06424395 52.87753332 107.33869803 C52.84618026 126.41466928 52.79341628 145.49052805 52.7265625 164.56640625 C53.30100098 164.54545898 53.87543945 164.52451172 54.46728516 164.50292969 C57.09519624 164.41926861 59.7228264 164.36759165 62.3515625 164.31640625 C63.25519531 164.28289062 64.15882813 164.249375 65.08984375 164.21484375 C70.97872979 164.12887461 74.24168988 164.64758551 78.7265625 168.56640625 C80.45671745 172.02671616 80.34446152 175.79184922 79.7265625 179.56640625 C76.75014704 182.69947516 74.2105878 184.49939312 69.87422293 184.69520742 C68.64132334 184.69699599 67.40842375 184.69878456 66.13816357 184.70062733 C65.10619687 184.70415567 65.10619687 184.70415567 64.05338237 184.7077553 C61.72504107 184.71446508 59.39675533 184.71398648 57.06840515 184.71357727 C55.39144789 184.71687466 53.71449142 184.72059996 52.03753597 184.72471875 C47.411266 184.73476097 42.785009 184.7384591 38.15872967 184.74110806 C33.17634026 184.7450045 28.1939612 184.75458323 23.21157837 184.76332092 C11.17075846 184.78310327 -0.87006232 184.79315344 -12.91089442 184.80204871 C-18.57612223 184.80642841 -24.2413491 184.81179601 -29.90657616 184.81703758 C-48.73013903 184.83405106 -67.55370131 184.84854657 -86.3772707 184.85578632 C-91.26445326 184.85769633 -96.15163582 184.85961664 -101.03881836 184.86157227 C-102.86092484 184.86229788 -102.86092484 184.86229788 -104.71984156 184.86303815 C-124.41017196 184.87134343 -144.1004417 184.89668824 -163.79074559 184.92915294 C-183.98980594 184.96218597 -204.18883543 184.98023165 -224.38792294 184.98343056 C-235.73571258 184.98559907 -247.08341376 184.99439742 -258.43117714 185.01989174 C-268.09283491 185.04154741 -277.75438274 185.04967451 -287.41606203 185.03992496 C-292.34830531 185.03536542 -297.2803215 185.03736211 -302.21253395 185.0566864 C-306.72479393 185.07421318 -311.2366594 185.07340631 -315.74892297 185.05778911 C-317.38420853 185.055397 -319.01952066 185.05981888 -320.6547654 185.07161776 C-322.87283287 185.08663486 -325.08948393 185.07713689 -327.30751514 185.06139088 C-329.15759512 185.06285609 -329.15759512 185.06285609 -331.04505044 185.0643509 C-334.90345245 184.46923309 -336.55388193 183.32359296 -339.2734375 180.56640625 C-340.47534651 176.96067921 -340.60014065 174.35616275 -340.2734375 170.56640625 C-338.47781345 167.81311604 -337.22088828 166.04013164 -334.2734375 164.56640625 C-332.67896286 164.48240096 -331.08103205 164.45913158 -329.484375 164.46875 C-328.54335938 164.47197266 -327.60234375 164.47519531 -326.6328125 164.47851562 C-325.64796875 164.48689453 -324.663125 164.49527344 -323.6484375 164.50390625 C-322.65585937 164.50841797 -321.66328125 164.51292969 -320.640625 164.51757812 C-318.1848359 164.5293848 -315.72916646 164.54585225 -313.2734375 164.56640625 C-313.28231995 163.70720581 -313.29120239 162.84800537 -313.300354 161.96276855 C-313.3807005 153.84200438 -313.4415035 145.72137485 -313.48068619 137.60030365 C-313.50150812 133.42574524 -313.52972601 129.25151692 -313.57519531 125.07714844 C-313.61884716 121.04412112 -313.64261513 117.01141011 -313.65294647 112.97816467 C-313.66030335 111.44404628 -313.67466942 109.90994403 -313.69635773 108.3759613 C-313.91651101 92.15076944 -313.91651101 92.15076944 -309.2734375 86.56640625 C-304.09103017 81.49345104 -298.43541142 81.98392837 -291.59375 82.03515625 C-290.46701874 82.03132935 -289.34028748 82.02750244 -288.17941284 82.02355957 C-285.8007518 82.02084286 -283.42206076 82.02818701 -281.04345703 82.04492188 C-277.41761001 82.06629324 -273.79375355 82.04513082 -270.16796875 82.01953125 C-267.85155815 82.02217535 -265.53514879 82.02730202 -263.21875 82.03515625 C-261.60276413 82.02301086 -261.60276413 82.02301086 -259.95413208 82.01062012 C-252.24717807 82.10578553 -246.64085089 83.20272238 -241.08285522 88.75456238 C-238.77102353 92.34715999 -238.7899454 94.58092516 -238.81933594 98.83520508 C-238.81875183 99.54794586 -238.81816772 100.26068665 -238.81756592 100.99502563 C-238.8203408 103.33833431 -238.85140196 105.68035255 -238.8828125 108.0234375 C-238.89027707 109.65296229 -238.89596899 111.28249609 -238.89996338 112.91203308 C-238.91520284 117.19152813 -238.95446959 121.47047623 -238.9987793 125.74975586 C-239.03976874 130.12020469 -239.0579822 134.49074229 -239.078125 138.86132812 C-239.12096608 147.42996591 -239.19130162 155.99805493 -239.2734375 164.56640625 C-231.6834375 164.56640625 -224.0934375 164.56640625 -216.2734375 164.56640625 C-216.28914795 160.84673584 -216.3048584 157.12706543 -216.32104492 153.29467773 C-216.370753 141.00524726 -216.40404428 128.71581831 -216.42887402 116.42631435 C-216.44432916 108.97515671 -216.46539269 101.52409446 -216.49975586 94.07299805 C-216.52969978 87.57703542 -216.54902234 81.08114189 -216.55570298 74.58511215 C-216.55960683 71.14692476 -216.56875287 67.708935 -216.59062767 64.27081108 C-216.61487496 60.42846912 -216.61540428 56.58631881 -216.61401367 52.74389648 C-216.6247995 51.60957184 -216.63558533 50.47524719 -216.646698 49.30654907 C-216.6204503 42.60473219 -216.2902278 37.15437551 -211.80859375 31.82421875 C-207.18583627 28.26825146 -204.05018888 27.45484622 -198.32470703 27.3894043 C-197.34333771 27.37656906 -196.36196838 27.36373383 -195.3508606 27.35050964 C-194.2966391 27.34312271 -193.2424176 27.33573578 -192.15625 27.328125 C-191.06633759 27.32005325 -189.97642517 27.31198151 -188.85348511 27.30366516 C-186.54866112 27.28984327 -184.24381683 27.27911266 -181.93896484 27.27124023 C-178.41855136 27.25400472 -174.89907164 27.21009773 -171.37890625 27.16601562 C-169.13802773 27.15589018 -166.89714124 27.14737361 -164.65625 27.140625 C-163.08099045 27.11436287 -163.08099045 27.11436287 -161.47390747 27.08757019 C-155.38206972 27.1056147 -151.93384797 27.54814882 -147.2734375 31.56640625 C-146.5309375 32.20578125 -145.7884375 32.84515625 -145.0234375 33.50390625 C-141.79988326 37.30309518 -141.02300105 40.97601727 -141.03292847 45.87519836 C-141.02880447 47.450541 -141.02880447 47.450541 -141.02459717 49.05770874 C-141.035383 50.76998154 -141.035383 50.76998154 -141.04638672 52.5168457 C-141.04609467 53.72701859 -141.04580261 54.93719147 -141.04550171 56.18403625 C-141.04665463 59.49365038 -141.05667099 62.80301366 -141.07064962 66.1125834 C-141.0831694 69.57457503 -141.08432847 73.03657016 -141.08670044 76.49858093 C-141.09291155 83.05040048 -141.10931735 89.60215313 -141.12939942 96.15394324 C-141.15176993 103.61460914 -141.16275474 111.07527827 -141.17279029 118.53596938 C-141.19368393 133.87949365 -141.23035552 149.22292579 -141.2734375 164.56640625 C-133.6834375 164.56640625 -126.0934375 164.56640625 -118.2734375 164.56640625 C-118.29438477 161.56853027 -118.31533203 158.5706543 -118.33691406 155.48193359 C-118.40320214 145.57539217 -118.44738022 135.66884094 -118.48068619 125.76213646 C-118.50155805 119.75585572 -118.52986896 113.74980227 -118.57519531 107.74365234 C-118.61866648 101.94703564 -118.64257763 96.15063753 -118.65294647 90.35387039 C-118.66033548 88.14267155 -118.67476446 85.93148463 -118.69635773 83.72037888 C-118.7254079 80.62240525 -118.72939273 77.52533408 -118.72753906 74.42724609 C-118.74192017 73.5137439 -118.75630127 72.6002417 -118.77111816 71.65905762 C-118.73524611 66.11603623 -117.97090919 62.96353434 -114.2734375 58.56640625 C-108.86246791 53.48337421 -103.25008658 54.01510889 -96.234375 54.10546875 C-95.075961 54.10638519 -93.917547 54.10730164 -92.72402954 54.10824585 C-90.28147266 54.11427503 -87.83892294 54.13000026 -85.39648438 54.15478516 C-81.65467149 54.19134534 -77.91384805 54.19580396 -74.171875 54.1953125 C-71.79686643 54.20514205 -69.42186457 54.21679835 -67.046875 54.23046875 C-65.92703217 54.2326944 -64.80718933 54.23492004 -63.65341187 54.23721313 C-62.61198029 54.24997284 -61.57054871 54.26273254 -60.49755859 54.27587891 C-59.58299896 54.2835025 -58.66843933 54.2911261 -57.72616577 54.29898071 C-53.33843818 54.77738283 -50.88540415 56.64537611 -48.0859375 59.94140625 C-47.57675781 60.52664063 -47.06757812 61.111875 -46.54296875 61.71484375 C-44.38792039 64.8578989 -44.14833728 67.98903398 -44.15318298 71.72991943 C-44.15112099 72.96242683 -44.15112099 72.96242683 -44.14901733 74.21983337 C-44.15261261 75.11247391 -44.15620789 76.00511444 -44.15991211 76.92480469 C-44.15976608 77.87148514 -44.15962006 78.81816559 -44.1594696 79.79353333 C-44.16016597 82.92097265 -44.16794552 86.04835233 -44.17578125 89.17578125 C-44.17764641 91.34482796 -44.17906985 93.51387508 -44.18006897 95.68292236 C-44.18388644 101.39081994 -44.19371019 107.09869207 -44.20477295 112.80657959 C-44.2150036 118.63146622 -44.21957014 124.45635697 -44.22460938 130.28125 C-44.23533312 141.7096484 -44.25292372 153.13802122 -44.2734375 164.56640625 C-36.6834375 164.56640625 -29.0934375 164.56640625 -21.2734375 164.56640625 C-21.28231995 162.65040619 -21.29120239 160.73440613 -21.300354 158.76034546 C-21.38137535 140.72025157 -21.44161237 122.68019445 -21.48068619 104.63995934 C-21.50130938 95.36487901 -21.52942533 86.08993454 -21.57519531 76.81494141 C-21.61507052 68.73063078 -21.64087208 60.64641855 -21.64979148 52.56201231 C-21.65500508 48.28153722 -21.66725377 44.00134358 -21.69635773 39.72095871 C-21.72353773 35.690826 -21.73187735 31.6610903 -21.72586823 27.63087463 C-21.72696732 26.15304531 -21.7349061 24.67520252 -21.7502594 23.19745255 C-21.7702236 21.17652279 -21.7629775 19.1553793 -21.75445557 17.1343689 C-21.75814274 16.0042507 -21.76182991 14.8741325 -21.76562881 13.7097683 C-21.01164867 8.89450135 -18.37672091 5.86815026 -15.29052734 2.22680664 C-10.41326263 -0.45730708 -5.47577875 -0.02350847 0 0 Z " fill="#070707" transform="translate(763.2734375,571.43359375)"/>
<path d="M0 0 C1.27359375 0.26683594 2.5471875 0.53367188 3.859375 0.80859375 C14.14782432 3.25047254 23.50816721 7.41750431 33 12 C34.1446875 12.54527344 35.289375 13.09054687 36.46875 13.65234375 C49.64446382 20.32173354 61.36441773 29.82683435 72 40 C73.00546875 40.928125 73.00546875 40.928125 74.03125 41.875 C94.05673325 60.94688881 105.63720677 86.48487479 112 113 C112.18763916 113.69416016 112.37527832 114.38832031 112.56860352 115.10351562 C114.48348419 123.01869661 114.33697093 131.01636376 114.31567383 139.11083984 C114.31253271 141.59908695 114.3359695 144.08611946 114.36132812 146.57421875 C114.51426719 185.44414087 97.40625761 221.11718772 70.45947266 248.55908203 C57.69040509 261.16581284 42.57008728 271.15103059 26 278 C24.84371094 278.51175781 23.68742188 279.02351563 22.49609375 279.55078125 C13.56661742 283.42157539 4.58460131 285.79043308 -4.96484375 287.609375 C-6.71056969 287.94444716 -8.44986666 288.31271634 -10.1875 288.6875 C-46.16492174 295.57679352 -85.03218249 284.66319163 -115.02539062 264.6484375 C-118.83199947 261.94043462 -122.43516601 259.02027661 -126 256 C-127.25876953 254.95005859 -127.25876953 254.95005859 -128.54296875 253.87890625 C-133.5025748 249.61713422 -137.84538952 245.0415498 -142 240 C-142.62519531 239.26265625 -143.25039062 238.5253125 -143.89453125 237.765625 C-162.26239745 215.59376284 -172.21464979 191.20598967 -177 163 C-177.1959375 161.86433594 -177.391875 160.72867188 -177.59375 159.55859375 C-181.70435079 123.55131183 -172.14274254 88.81034477 -152 59 C-151.54818359 58.32179199 -151.09636719 57.64358398 -150.63085938 56.94482422 C-149.47576014 55.25741535 -148.2441353 53.62287716 -147 52 C-146.34 52 -145.68 52 -145 52 C-144.773125 51.45859375 -144.54625 50.9171875 -144.3125 50.359375 C-142.58704892 47.25767128 -140.38706787 44.87299899 -138 42.25 C-137.54882812 41.74339844 -137.09765625 41.23679687 -136.6328125 40.71484375 C-135.46639188 39.43454183 -134.23716029 38.21208271 -133 37 C-132.34 37 -131.68 37 -131 37 C-131 36.34 -131 35.68 -131 35 C-128.99762749 33.2197752 -126.99370799 31.56992889 -124.875 29.9375 C-124.24335938 29.44797852 -123.61171875 28.95845703 -122.9609375 28.45410156 C-87.4237357 1.29000039 -44.08826052 -9.67457293 0 0 Z M-53 25 C-54.40986438 25.3042656 -55.82868811 25.56720908 -57.25 25.8125 C-84.12749795 31.10424535 -110.38051836 46.98552323 -127 69 C-127.79384672 71.18048018 -127.79384672 71.18048018 -128 73 C-128.66 73 -129.32 73 -130 73 C-135.81171112 80.99764751 -140.17044489 89.91913879 -144 99 C-144.36867188 99.8559375 -144.73734375 100.711875 -145.1171875 101.59375 C-156.60193977 130.4391743 -153.6075138 162.38693598 -143 191 C-138.03448664 202.43489215 -130.93174091 212.4515105 -123 222 C-122.44570312 222.69480469 -121.89140625 223.38960937 -121.3203125 224.10546875 C-117.65053893 228.5984618 -113.47769993 232.32636809 -109 236 C-108.06285156 236.78632813 -107.12570313 237.57265625 -106.16015625 238.3828125 C-98.06021324 245.01108472 -89.53330381 249.73595003 -80 254 C-78.46666016 254.70769531 -78.46666016 254.70769531 -76.90234375 255.4296875 C-48.42940051 267.50911797 -16.45352161 267.1507355 12.28125 256.07421875 C16.74105711 254.19824678 20.9443269 251.99064243 25.125 249.5625 C25.81078125 249.16925537 26.4965625 248.77601074 27.203125 248.37084961 C29.14020627 247.25523258 31.07093902 246.129412 33 245 C33.92554688 244.46375 34.85109375 243.9275 35.8046875 243.375 C37.57716723 242.31529682 39.29826759 241.16994103 41 240 C41 239.34 41 238.68 41 238 C41.58652344 237.72929687 42.17304688 237.45859375 42.77734375 237.1796875 C64.08995752 225.86789601 77.55638359 197.88721872 84.36572266 176.10986328 C90.88935596 154.4096173 91.69261928 124.25829699 82.02734375 103.25 C80.86979307 100.71483197 80.00940253 98.14219844 79.125 95.5 C74.06184876 81.52727255 64.06480504 69.69273405 54 59 C53.41089844 58.33484375 52.82179688 57.6696875 52.21484375 56.984375 C45.81110221 50.05988965 37.93536439 44.99527034 30 40 C29.33323242 39.58008789 28.66646484 39.16017578 27.97949219 38.72753906 C16.05598711 31.40937796 3.60259704 27.9275443 -10 25 C-11.18207031 24.73316406 -12.36414063 24.46632813 -13.58203125 24.19140625 C-21.5120661 22.68438783 -46.66616929 18.66616929 -53 25 Z " fill="#FAFAFA" transform="translate(335,247)"/>
<path d="M0 0 C0.6742804 -0.00095673 1.34856079 -0.00191345 2.04327393 -0.00289917 C3.46179295 -0.00357526 4.88031517 -0.00176112 6.29882812 0.00244141 C8.43366719 0.00776399 10.56829265 0.00249431 12.703125 -0.00390625 C50.20781479 -0.02955981 85.5001484 12.53052008 114.703125 36.1328125 C115.58339355 36.83591553 115.58339355 36.83591553 116.48144531 37.55322266 C129.94220189 48.39151576 141.42939651 60.51345415 150.703125 75.1328125 C151.08452637 75.72707031 151.46592773 76.32132812 151.85888672 76.93359375 C157.44673874 85.68981548 161.85995375 94.46557618 165.703125 104.1328125 C166.05890625 104.94621094 166.4146875 105.75960937 166.78125 106.59765625 C181.17654806 140.01531247 181.7748374 179.75693125 170.703125 214.1328125 C170.20159507 215.90321314 169.70147217 217.67401332 169.203125 219.4453125 C167.7465099 224.21591961 165.86579899 228.64212248 163.703125 233.1328125 C163.14753906 234.30714844 162.59195312 235.48148438 162.01953125 236.69140625 C153.38640066 254.6501048 142.89667427 270.10134291 128.703125 284.1328125 C128.043125 284.82761719 127.383125 285.52242188 126.703125 286.23828125 C113.79630247 299.67448517 97.59100592 310.35363787 80.703125 318.1328125 C79.47142578 318.74189453 79.47142578 318.74189453 78.21484375 319.36328125 C49.96750562 332.96385146 14.35445445 337.27005253 -16.296875 331.1328125 C-17.86814099 330.85996405 -19.43978821 330.58930596 -21.01171875 330.3203125 C-37.50989708 327.39095069 -51.70116464 321.76324449 -66.51074219 314.05810547 C-69.09186515 312.7209737 -71.69397917 311.42692831 -74.296875 310.1328125 C-75.63020833 309.46614583 -76.96354167 308.79947917 -78.296875 308.1328125 C-78.296875 307.4728125 -78.296875 306.8128125 -78.296875 306.1328125 C-79.286875 305.8234375 -79.286875 305.8234375 -80.296875 305.5078125 C-84.43247319 303.61232999 -87.72886176 300.92850087 -91.296875 298.1328125 C-92.06902344 297.54757812 -92.84117187 296.96234375 -93.63671875 296.359375 C-97.8203949 293.17114925 -101.62234525 289.90941252 -105.296875 286.1328125 C-106.163125 285.4728125 -107.029375 284.8128125 -107.921875 284.1328125 C-110.47394066 281.98370458 -111.6232466 279.99192768 -113.296875 277.1328125 C-114.03292969 276.41867187 -114.76898438 275.70453125 -115.52734375 274.96875 C-118.80328122 271.61426396 -121.43012594 268.03164765 -124.109375 264.1953125 C-124.89658936 263.07032349 -124.89658936 263.07032349 -125.69970703 261.92260742 C-133.3161963 250.90168983 -139.251216 239.53114272 -144.296875 227.1328125 C-144.80605469 225.98941406 -145.31523437 224.84601563 -145.83984375 223.66796875 C-148.30739036 217.68102591 -149.72566579 211.40013841 -151.296875 205.1328125 C-151.58949219 203.99714844 -151.88210937 202.86148438 -152.18359375 201.69140625 C-152.44785156 200.62019531 -152.71210938 199.54898438 -152.984375 198.4453125 C-153.21511719 197.51332031 -153.44585937 196.58132813 -153.68359375 195.62109375 C-155.46463505 185.49071236 -155.45273692 175.26425819 -155.421875 165.0078125 C-155.42574219 163.71488281 -155.42960938 162.42195312 -155.43359375 161.08984375 C-155.42312784 150.80185612 -154.78552696 141.11995176 -152.296875 131.1328125 C-151.99265625 129.88371094 -151.6884375 128.63460937 -151.375 127.34765625 C-148.66150484 116.53389417 -145.23779102 106.14279509 -140.296875 96.1328125 C-139.81863281 95.09253906 -139.34039062 94.05226563 -138.84765625 92.98046875 C-131.28848221 77.00187568 -121.33604833 63.25138337 -108.88525391 50.74023438 C-107.46945618 49.30746274 -106.08944498 47.83952891 -104.71484375 46.3671875 C-97.97562588 39.25915671 -90.31197687 33.69478814 -82.296875 28.1328125 C-81.73081543 27.73755371 -81.16475586 27.34229492 -80.58154297 26.93505859 C-65.03616686 16.1328125 -65.03616686 16.1328125 -58.296875 16.1328125 C-58.296875 15.4728125 -58.296875 14.8128125 -58.296875 14.1328125 C-39.75108447 6.86032551 -20.15123575 0.01841978 0 0 Z M-79.296875 51.1328125 C-81.0462733 52.44611438 -82.79622482 53.75867986 -84.546875 55.0703125 C-86.68989513 56.62275833 -86.68989513 56.62275833 -88.296875 58.1328125 C-88.296875 58.7928125 -88.296875 59.4528125 -88.296875 60.1328125 C-88.84859375 60.349375 -89.4003125 60.5659375 -89.96875 60.7890625 C-93.10243889 62.59776884 -95.13084006 64.94832924 -97.546875 67.6328125 C-98.00578125 68.13167969 -98.4646875 68.63054687 -98.9375 69.14453125 C-101.5261795 71.7342191 -101.5261795 71.7342191 -102.296875 75.1328125 C-102.956875 75.1328125 -103.616875 75.1328125 -104.296875 75.1328125 C-105.97243682 77.3930128 -107.52377022 79.64756213 -109.046875 82.0078125 C-109.49643555 82.69673584 -109.94599609 83.38565918 -110.40917969 84.09545898 C-111.71315937 86.10282728 -113.00570647 88.11718978 -114.296875 90.1328125 C-114.8846875 91.03386719 -115.4725 91.93492187 -116.078125 92.86328125 C-120.31759851 99.59457297 -123.33632374 106.76507697 -126.296875 114.1328125 C-126.668125 115.01453125 -127.039375 115.89625 -127.421875 116.8046875 C-132.44660396 129.44502128 -134.92895593 143.57867395 -135.296875 157.1328125 C-135.34352295 158.28160889 -135.34352295 158.28160889 -135.39111328 159.45361328 C-136.23457499 181.65912032 -133.23344541 205.00969507 -123.296875 225.1328125 C-122.74257812 226.31359375 -122.18828125 227.494375 -121.6171875 228.7109375 C-113.67939296 245.38399613 -103.66713108 258.7927904 -90.6171875 271.8046875 C-89.32928104 273.09693035 -88.05456364 274.40435713 -86.83984375 275.765625 C-65.93293482 298.78129996 -28.9519702 311.64713255 1.28442383 313.27148438 C43.0249273 314.78945616 81.46287599 300.89180424 112.26269531 272.50292969 C120.83839736 264.35516813 128.25823183 255.03673694 134.703125 245.1328125 C135.20199219 244.38128906 135.70085937 243.62976563 136.21484375 242.85546875 C144.44848785 229.86748947 150.10594791 214.78960001 153.890625 199.9453125 C154.05780029 199.29175781 154.22497559 198.63820313 154.3972168 197.96484375 C156.24084554 190.42695723 156.85976827 183.11050311 156.87109375 175.390625 C156.87442215 174.58221161 156.87775055 173.77379822 156.88117981 172.94088745 C156.88621019 171.2416846 156.88858935 169.54247201 156.88842773 167.84326172 C156.89061325 165.27164121 156.90880788 162.7004511 156.92773438 160.12890625 C156.95704797 151.91053008 156.90348635 144.11214487 154.703125 136.1328125 C154.50581787 135.33117676 154.30851074 134.52954102 154.10522461 133.70361328 C147.69775097 108.13841553 136.62259847 86.48345856 118.703125 67.1328125 C117.83042969 66.17761719 116.95773437 65.22242188 116.05859375 64.23828125 C101.5837551 49.06899757 83.86220418 38.37403406 64.703125 30.1328125 C63.713125 29.69066406 62.723125 29.24851563 61.703125 28.79296875 C15.72098274 9.4968912 -41.15163889 20.20424268 -79.296875 51.1328125 Z " fill="#070707" transform="translate(292.296875,223.8671875)"/>
<path d="M0 0 C2.02375471 14.58346599 3.36386346 29.17081894 4.125 43.875 C4.18149719 44.95871887 4.23799438 46.04243774 4.29620361 47.15899658 C5.61655517 75.84023332 2.94394963 97.69888729 -16.8694725 119.45797348 C-22.00486561 124.90770832 -27.4225656 130.00725978 -33 135 C-33.78921593 135.70703819 -34.57843185 136.41407639 -35.39156342 137.14253998 C-45.23985513 145.89321611 -55.42236396 154.14948322 -66 162 C-70.36927354 160.10009213 -72.06805656 157.20804442 -74.375 153.1875 C-74.7671167 152.51315918 -75.1592334 151.83881836 -75.56323242 151.14404297 C-89.3595722 127.0704626 -92.78656919 100.90580318 -87.30859375 73.546875 C-81.81211381 55.89898426 -72.62207098 41.41805743 -60 28 C-59.45988281 27.38382812 -58.91976562 26.76765625 -58.36328125 26.1328125 C-44.72360499 11.22193216 -19.99780466 -0.21480371 0 0 Z " fill="#FCFCFC" transform="translate(293,291)"/>
<path d="M0 0 C5.60966027 0.28025178 11.22276767 0.40034395 16.83746338 0.5355835 C27.7818569 0.82200766 38.71125296 1.28032481 49.644104 1.85394287 C49.66621999 3.2743631 49.68188111 4.69488461 49.69488525 6.11541748 C49.70902466 7.30197182 49.70902466 7.30197182 49.72344971 8.51249695 C49.06502999 27.94208293 34.32046196 48.38941758 21.644104 61.85394287 C20.75658447 62.87294678 20.75658447 62.87294678 19.85113525 63.91253662 C5.83051281 79.29498553 -18.66777091 89.80392316 -39.33758545 91.03094482 C-73.93285901 91.70790855 -73.93285901 91.70790855 -89.355896 82.85394287 C-90.964646 82.18878662 -90.964646 82.18878662 -92.605896 81.51019287 C-96.55960606 79.84076729 -100.11955477 77.7226192 -103.730896 75.41644287 C-104.35866943 75.03423584 -104.98644287 74.65202881 -105.63323975 74.25823975 C-110.05700244 71.44442092 -110.05700244 71.44442092 -111.29437256 68.99993896 C-111.355896 66.85394287 -111.355896 66.85394287 -109.71282959 64.64324951 C-108.90152588 63.85812988 -108.09022217 63.07301025 -107.2543335 62.26409912 C-106.37132568 61.39720459 -105.48831787 60.53031006 -104.57855225 59.637146 C-103.63882568 58.73931396 -102.69909912 57.84148193 -101.730896 56.91644287 C-100.35611084 55.57549561 -100.35611084 55.57549561 -98.95355225 54.2074585 C-97.23307544 52.53055382 -95.50751776 50.85883521 -93.77532959 49.19403076 C-92.07488333 47.54935091 -90.39454749 45.8837476 -88.72943115 44.20330811 C-86.355896 41.85394287 -86.355896 41.85394287 -83.480896 39.54144287 C-78.09993725 35.10081609 -73.89835218 29.61597781 -69.8204813 23.99050999 C-50.74796385 -1.74976094 -30.28180853 -1.67682095 0 0 Z " fill="#FDFDFD" transform="translate(352.35589599609375,399.14605712890625)"/>
<path d="M0 0 C3.23253357 2.37982687 4.81621423 5.01980924 5.5625 9 C4.37748732 15.32006763 -0.04946085 19.24573089 -4.875 23.125 C-6.04086385 24.08663461 -7.20621092 25.04889601 -8.37109375 26.01171875 C-9.26997314 26.74914307 -9.26997314 26.74914307 -10.18701172 27.50146484 C-13.13787603 29.94051752 -16.03643366 32.43962026 -18.9375 34.9375 C-20.11187402 35.94543502 -21.28635374 36.95324691 -22.4609375 37.9609375 C-23.64067049 38.97390536 -24.82035794 39.98692626 -26 41 C-49.33986196 61.04421681 -49.33986196 61.04421681 -58.75 68.6875 C-63.62627587 72.65787847 -68.32556065 76.795616 -73 81 C-75.650187 83.35266081 -78.32021195 85.68112617 -81 88 C-81.52239258 88.45407227 -82.04478516 88.90814453 -82.58300781 89.37597656 C-84.34237096 90.90194471 -86.10802605 92.42035465 -87.875 93.9375 C-88.44702148 94.43483643 -89.01904297 94.93217285 -89.60839844 95.44458008 C-93.7716303 99 -93.7716303 99 -96 99 C-96 99.66 -96 100.32 -96 101 C-99.57320154 102.78660077 -103.15886197 102.64115345 -107 102 C-110.81744624 100.25027636 -114.17640611 97.94560064 -117.625 95.5625 C-119.58366246 94.2615548 -121.54329947 92.96207564 -123.50390625 91.6640625 C-124.4489502 91.03016602 -125.39399414 90.39626953 -126.36767578 89.74316406 C-129.70572969 87.53265535 -133.11054617 85.4636679 -136.5625 83.4375 C-149.49325333 75.77123048 -162.22372156 67.76949995 -174.9375 59.75 C-175.71520752 59.26152588 -176.49291504 58.77305176 -177.29418945 58.26977539 C-180.95549389 55.96197579 -184.58289974 53.62181912 -188.15625 51.1796875 C-188.79828369 50.74688477 -189.44031738 50.31408203 -190.10180664 49.86816406 C-191.81454803 48.70826525 -193.51520284 47.53057443 -195.21484375 46.3515625 C-197.83390495 44.7138631 -197.83390495 44.7138631 -200.16796875 45.53515625 C-202.18389544 47.14703793 -203.7445191 48.81075937 -205.375 50.8125 C-208.35462171 54.33965903 -211.40875442 57.11138942 -215 60 C-217.49850776 62.3795312 -219.77121745 64.70258268 -221.875 67.4375 C-224.08901259 70.10733871 -226.44395438 72.18856599 -229.12109375 74.375 C-231.53973287 76.46679599 -233.75409298 78.72396904 -236 81 C-247 92 -247 92 -249.73046875 94.6953125 C-252.02232297 96.92623572 -252.02232297 96.92623572 -253.8125 99.375 C-255.59809234 101.51771081 -257.20581641 103.09521559 -259.3125 104.875 C-265.67553454 110.30158795 -271.44695544 116.3685512 -277.32446289 122.30859375 C-279.54178993 124.54692126 -281.77215146 126.77215146 -284 129 C-284.96486328 129.98226562 -284.96486328 129.98226562 -285.94921875 130.984375 C-286.52285156 131.56703125 -287.09648437 132.1496875 -287.6875 132.75 C-288.26886719 133.34296875 -288.85023438 133.9359375 -289.44921875 134.546875 C-292.62023499 137.51820508 -295.63805845 137.34601013 -299.8046875 137.265625 C-302 137 -302 137 -304.5 135.5625 C-306.70667601 131.79276181 -307.29665638 128.35096021 -307 124 C-305.21657031 120.12297893 -302.81764411 117.78271563 -299.6159668 115.09033203 C-293.65246619 109.91548201 -288.14856807 104.27228776 -282.58203125 98.6796875 C-281.39497044 97.49075679 -280.20768509 96.30205024 -279.02018738 95.11355591 C-275.91449026 92.00406757 -272.81180633 88.89158998 -269.70977783 85.77844238 C-266.55638392 82.6148026 -263.40014798 79.45400102 -260.24414062 76.29296875 C-254.6930014 70.7322979 -249.14433549 65.16916974 -243.5974884 59.60421753 C-241.8434947 57.84567988 -240.08246312 56.09413797 -238.31498718 54.34915161 C-235.89443552 51.96775353 -235.89443552 51.96775353 -233.5625 49 C-230.93248768 45.92096119 -228.1374966 43.54921599 -225 41 C-222.52279765 38.64075967 -220.26298208 36.34459721 -218.1875 33.625 C-215.15615506 29.98738607 -211.64788837 27.00665799 -208 24 C-207.38125 23.43539063 -206.7625 22.87078125 -206.125 22.2890625 C-203.1824844 20.50408061 -201.39912322 20.57669698 -198 21 C-195.01953125 22.328125 -195.01953125 22.328125 -191.8125 24.25 C-191.21574463 24.60425049 -190.61898926 24.95850098 -190.00415039 25.32348633 C-183.27596581 29.3542315 -176.6662979 33.58485861 -170.05078125 37.796875 C-164.93371566 41.05092644 -159.78399185 44.2504428 -154.625 47.4375 C-153.75375488 47.97576416 -152.88250977 48.51402832 -151.98486328 49.06860352 C-150.21349656 50.16262542 -148.4420118 51.25645621 -146.67041016 52.35009766 C-143.09906565 54.55663872 -139.53145089 56.76916933 -135.96411133 58.98217773 C-133.35078841 60.60127818 -130.73407113 62.21478794 -128.1171875 63.828125 C-124.6673779 65.9577671 -121.23837559 68.11667701 -117.8203125 70.296875 C-116.99748779 70.81556152 -116.17466309 71.33424805 -115.3269043 71.86865234 C-113.77254318 72.8485653 -112.22413685 73.83801015 -110.68286133 74.83837891 C-109.99216553 75.27069824 -109.30146973 75.70301758 -108.58984375 76.1484375 C-107.99034912 76.53177246 -107.39085449 76.91510742 -106.77319336 77.31005859 C-104.43174012 78.22110731 -103.32010666 77.89715419 -101 77 C-98.808879 75.30327079 -96.75133541 73.58981299 -94.6875 71.75 C-94.07865967 71.21785889 -93.46981934 70.68571777 -92.8425293 70.13745117 C-91.54977365 69.0070531 -90.2595507 67.87375301 -88.97167969 66.73779297 C-85.76640021 63.91273362 -82.53967045 61.1124963 -79.3125 58.3125 C-78.68118164 57.76376221 -78.04986328 57.21502441 -77.39941406 56.6496582 C-72.93362002 52.77841222 -68.38809973 49.01875541 -63.796875 45.296875 C-58.11450982 40.63035164 -52.56912498 35.80055571 -47 31 C-44.60549563 28.93595014 -42.20996292 26.87311296 -39.8125 24.8125 C-39.23040771 24.31218262 -38.64831543 23.81186523 -38.04858398 23.29638672 C-33.62928016 19.51054759 -29.12856697 15.83311256 -24.60546875 12.171875 C-21.0215475 9.18437843 -17.60051388 6.03211099 -14.19140625 2.84765625 C-9.6662687 -0.9676558 -5.7561452 -1.94911055 0 0 Z " fill="#060606" transform="translate(784,482)"/>
<path d="M0 0 C22.23925326 0 41.39633748 10.84788496 58 25 C60.52588684 27.53515615 62.7578436 30.21584651 65 33 C65.83724609 33.88171875 65.83724609 33.88171875 66.69140625 34.78125 C74.1959808 42.70554348 79.56229509 52.68688528 83 63 C83.7734375 64.7325 83.7734375 64.7325 84.5625 66.5 C87.69796456 74.13417458 88 79.49522367 88 88 C58.96 88 29.92 88 0 88 C0 58.96 0 29.92 0 0 Z " fill="#FDFDFD" transform="translate(314,292)"/>
<path d="M0 0 C11.22 0 22.44 0 34 0 C34 47.52 34 95.04 34 144 C22.78 144 11.56 144 0 144 C0 96.48 0 48.96 0 0 Z " fill="#FAFAFA" transform="translate(762,592)"/>
<path d="M0 0 C10.89 0 21.78 0 33 0 C33 38.28 33 76.56 33 116 C22.11 116 11.22 116 0 116 C0 77.72 0 39.44 0 0 Z " fill="#FDFDFD" transform="translate(568,620)"/>
<path d="M0 0 C1.24771683 -0.0071553 2.49543365 -0.01431061 3.78096008 -0.02168274 C5.16629003 -0.02452297 6.55162025 -0.0272347 7.93695068 -0.02983093 C9.39399884 -0.03609655 10.8510454 -0.04274344 12.30809021 -0.04974365 C17.09549855 -0.0707752 21.88290717 -0.08114535 26.67034912 -0.09111023 C28.31920132 -0.09515816 29.96805335 -0.09927509 31.61690521 -0.10346031 C39.36378333 -0.12251018 47.11065192 -0.1367415 54.85754895 -0.14507228 C63.79618073 -0.15484363 72.73456479 -0.1811612 81.67310929 -0.22157317 C88.58447677 -0.2517464 95.49577329 -0.26654231 102.40720534 -0.26985329 C106.53395437 -0.27220247 110.66043871 -0.28114535 114.787117 -0.30631447 C118.67121868 -0.32962143 122.55488189 -0.3338181 126.43903542 -0.32355309 C127.86161318 -0.32305824 129.28421272 -0.3293636 130.70672417 -0.34310913 C144.17221092 -0.46590446 144.17221092 -0.46590446 150.02972412 4.14717102 C151.77447471 7.6366722 151.74442817 11.35071555 151.02972412 15.14717102 C148.89676957 17.94954515 146.17119059 19.57643779 143.02972412 21.14717102 C141.0772435 21.24744394 139.121291 21.28227965 137.16624451 21.28761292 C135.91701202 21.29332306 134.66777954 21.2990332 133.38069153 21.30491638 C131.98855601 21.3061618 130.59642037 21.30728688 129.20428467 21.30830383 C127.74413934 21.31293108 126.28399523 21.31795561 124.82385254 21.323349 C120.85062194 21.33648475 116.87740824 21.34292034 112.90415931 21.34735966 C110.42261829 21.35028873 107.94108191 21.35439324 105.45954323 21.35886383 C97.69771269 21.37254239 89.93589274 21.38220706 82.17405099 21.38606572 C73.20996429 21.39054631 64.24603008 21.4080927 55.28198975 21.43706632 C48.3562354 21.45867566 41.43052396 21.46876962 34.50473624 21.47010684 C30.36691005 21.47115549 26.22922713 21.47707577 22.09143639 21.49492645 C18.19837828 21.5113941 14.30557135 21.5135691 10.41249084 21.50478745 C8.98424419 21.50401634 7.5559841 21.5083695 6.12777138 21.5182457 C4.17660677 21.53094588 2.22534147 21.5233037 0.27415466 21.5146637 C-1.36320129 21.51686354 -1.36320129 21.51686354 -3.03363514 21.51910782 C-7.44506324 20.96038355 -10.06055452 19.30784999 -12.78277588 15.83467102 C-14.23762115 12.54212645 -14.55244078 10.71293107 -13.97027588 7.14717102 C-10.34167894 1.16902281 -6.7356415 0.02648275 0 0 Z " fill="#0C0C0C" transform="translate(691.9702758789063,308.8528289794922)"/>
<path d="M0 0 C1.24923248 -0.00426498 2.49846497 -0.00852997 3.78555298 -0.01292419 C5.17768863 -0.01257465 6.56982426 -0.0121131 7.96195984 -0.0115509 C9.42210476 -0.01454175 10.88224889 -0.0179441 12.34239197 -0.02172852 C16.31562725 -0.03058162 20.28884101 -0.03290721 24.2620852 -0.0335443 C27.57714446 -0.03449267 30.89219869 -0.03817023 34.20725602 -0.0417164 C42.02897628 -0.04986639 49.85068504 -0.05230018 57.67240906 -0.05158997 C65.74305223 -0.05098943 73.81362851 -0.06153521 81.88425475 -0.07733363 C88.81000913 -0.09040825 95.73574164 -0.09577388 102.66150826 -0.09513456 C106.79929877 -0.09487949 110.93702989 -0.09773524 115.07480812 -0.10831261 C118.96782733 -0.11799195 122.86073037 -0.11807391 126.75375366 -0.11079597 C128.18199521 -0.10974984 129.61024398 -0.11211476 131.03847313 -0.11815643 C132.98966404 -0.12587504 134.94089451 -0.12003276 136.89208984 -0.11352539 C137.98366048 -0.11407016 139.07523111 -0.11461493 140.19987965 -0.1151762 C144.12264084 0.21728939 147.00381671 1.11818534 149.94902039 3.75871277 C151.6677147 7.19610141 151.80944707 10.41412899 151.13652039 14.13371277 C148.96901342 17.69461707 146.98504337 19.61728789 143.13652039 21.13371277 C140.31569004 21.39098167 140.31569004 21.39098167 136.99456787 21.40113831 C135.73417191 21.40966827 134.47377594 21.41819824 133.17518616 21.42698669 C131.7808684 21.42628769 130.38655075 21.42536464 128.99223328 21.42424011 C127.52193866 21.43022528 126.0516472 21.4370308 124.58135986 21.44459534 C120.58963597 21.46226218 116.59799782 21.46695096 112.6062386 21.46822691 C109.27367479 21.47012652 105.94113093 21.47748462 102.60857481 21.4845711 C94.74654182 21.50085469 86.88455463 21.50574002 79.02250671 21.50431824 C70.91197608 21.50311628 62.80171133 21.52422892 54.691248 21.55580556 C47.72722752 21.58195268 40.76329399 21.59268622 33.79922479 21.59140742 C29.64015413 21.59089739 25.48131983 21.59660312 21.32229805 21.61776352 C17.41108388 21.63712014 13.50033222 21.6372884 9.58910179 21.62273026 C8.15440318 21.62063793 6.71967581 21.62536833 5.28502655 21.63745117 C3.32522824 21.65288684 1.36527243 21.64120416 -0.59454346 21.62818909 C-2.23906447 21.62982339 -2.23906447 21.62982339 -3.91680813 21.63149071 C-8.17039887 20.91293635 -10.61486958 18.72285281 -13.23847961 15.38371277 C-14.22317833 11.8387974 -13.99807416 8.63084912 -12.86347961 5.13371277 C-8.64277128 0.91300444 -5.82575651 0.00895333 0 0 Z " fill="#0B0B0B" transform="translate(691.8634796142578,379.8662872314453)"/>
<path d="M0 0 C1.27584961 -0.00708481 2.55169922 -0.01416962 3.86621094 -0.02146912 C5.28305089 -0.0191752 6.69989051 -0.01666549 8.11672974 -0.01396179 C9.60658016 -0.01830828 11.09642834 -0.02349122 12.58627319 -0.02944946 C16.63591401 -0.04285875 20.6854616 -0.04341591 24.7351203 -0.04088616 C28.11485362 -0.03981758 31.49456799 -0.04469702 34.87429726 -0.04949158 C42.8480261 -0.06059382 50.82170784 -0.0610204 58.79544067 -0.05497742 C67.02235376 -0.0489384 75.24909579 -0.06124512 83.47597969 -0.08254749 C90.53764209 -0.10016059 97.59925005 -0.10616524 104.66093361 -0.10290974 C108.87921619 -0.10109599 113.09737679 -0.10374199 117.3156395 -0.11762428 C121.28341544 -0.13019303 125.25092478 -0.12826769 129.21869659 -0.11521339 C130.67435165 -0.11284582 132.13002541 -0.1155888 133.58565903 -0.12383652 C135.5740086 -0.13428949 137.56243399 -0.12440874 139.55078125 -0.11352539 C141.21937352 -0.113777 141.21937352 -0.113777 142.92167473 -0.1140337 C146.29500162 0.31005707 148.17069589 1.27307079 150.90237427 3.26069641 C153.23820793 6.48637146 153.51380263 9.3628406 152.90237427 13.26069641 C151.46000251 16.35012069 149.7274904 18.3448653 146.90237427 20.26069641 C142.0438139 21.30654638 137.20074366 21.17743888 132.25564575 21.10298157 C130.75549461 21.10592038 129.25534682 21.11189931 127.75521851 21.12068176 C123.69080041 21.13548148 119.62774676 21.10671775 115.56351733 21.06924868 C111.30711408 21.03658935 107.0507407 21.04134068 102.79423523 21.04130554 C95.64783761 21.03574414 88.50196228 21.00344628 81.35574341 20.9535675 C73.09635316 20.89608845 64.83746089 20.87325376 56.57788223 20.87068331 C47.77937031 20.86775793 38.9810414 20.84194033 30.18259931 20.80811644 C27.64926677 20.79976155 25.11595257 20.79541193 22.58260918 20.79184341 C18.60075752 20.7849314 14.61927918 20.76248971 10.63757324 20.72807312 C9.17710635 20.71772375 7.71659372 20.71240987 6.25609016 20.7125206 C4.26125437 20.71175186 2.26645735 20.69065909 0.27174377 20.66856384 C-0.84412896 20.66223749 -1.9600017 20.65591114 -3.10968876 20.64939308 C-6.4861176 20.21015803 -8.38901724 19.29722287 -11.09762573 17.26069641 C-12.65077473 12.85512954 -12.6344048 8.54896618 -10.84762573 4.26069641 C-7.41869705 0.34192078 -5.0040125 0.00924092 0 0 Z " fill="#050505" transform="translate(190.09762573242188,664.7393035888672)"/>
<path d="M0 0 C1.28144394 -0.00860046 2.56288788 -0.01720093 3.88316345 -0.02606201 C5.31149251 -0.0304974 6.73982201 -0.03479575 8.16815186 -0.03897095 C9.66608369 -0.04687095 11.16401362 -0.05513983 12.66194153 -0.06375122 C17.58944884 -0.08998473 22.51696471 -0.10528087 27.44451904 -0.11953735 C29.14013423 -0.12489662 30.83574937 -0.13027413 32.53136444 -0.13566971 C39.5845529 -0.15730101 46.63773906 -0.17603777 53.6909523 -0.1872921 C63.80202553 -0.20353113 73.91271444 -0.23670467 84.02364278 -0.29369295 C91.13114913 -0.33238808 98.23855268 -0.35192431 105.3461616 -0.35721266 C109.59200499 -0.36086694 113.83743861 -0.37289569 118.08316803 -0.4053154 C122.07893958 -0.43538859 126.07405329 -0.44171091 130.06991386 -0.42993164 C131.53484741 -0.42971083 132.9998114 -0.43802203 134.46463966 -0.45558548 C146.91074983 -0.59666757 146.91074983 -0.59666757 150.86877441 2.55926514 C153.74153679 6.07085512 153.74153679 6.07085512 153.49139404 9.21640015 C152.77459187 14.86121722 152.77459187 14.86121722 150.99139404 17.15390015 C147.1286594 19.94382378 144.42850939 20.53229034 139.69795227 20.54830933 C138.42921265 20.55965912 137.16047302 20.57100891 135.85328674 20.58270264 C134.4547418 20.58005953 133.05619744 20.57708835 131.65765381 20.57382202 C130.17897908 20.58116458 128.70031008 20.58975136 127.22164917 20.5994873 C123.21128888 20.62169158 119.20113412 20.62463458 115.1907208 20.62273979 C111.84079445 20.62262005 108.49091159 20.63118565 105.14099735 20.63951731 C97.23717751 20.65874716 89.33346329 20.6616366 81.42962646 20.65487671 C73.27982995 20.64823467 65.13048589 20.67110751 56.98078114 20.70819044 C49.97934409 20.73889079 42.97805257 20.75024716 35.97654957 20.74635363 C31.79673852 20.7442866 27.61727965 20.749758 23.43753242 20.77424622 C19.50650796 20.7965169 15.57621909 20.79463362 11.64519119 20.7743187 C10.20446259 20.77090923 8.76368444 20.77599522 7.32302284 20.79030228 C-4.91435128 20.90342342 -4.91435128 20.90342342 -8.85005188 17.740448 C-12.2009267 13.72516843 -12.45285015 11.39598164 -12.00860596 6.15390015 C-8.45933595 0.71168613 -6.29290362 0.031347 0 0 Z " fill="#060606" transform="translate(690.0086059570313,238.84609985351563)"/>
<path d="M0 0 C1.27302979 -0.0071553 2.54605957 -0.01431061 3.85766602 -0.02168274 C5.27655005 -0.02452315 6.69543435 -0.02723486 8.11431885 -0.02983093 C9.60239827 -0.03609457 11.09047612 -0.04274128 12.57855225 -0.04974365 C16.62828885 -0.06716367 20.67801364 -0.07770834 24.72777843 -0.08594918 C27.25756981 -0.09109769 29.78735752 -0.09717351 32.3171463 -0.10346031 C40.2311478 -0.12251601 48.14513996 -0.1367458 56.05915999 -0.14507228 C65.19647116 -0.15484425 74.33354004 -0.18116101 83.47076583 -0.22157317 C90.53156546 -0.25173055 97.59229564 -0.26654083 104.65315843 -0.26985329 C108.87099081 -0.27220441 113.08856448 -0.28117236 117.30632782 -0.30631447 C121.27577111 -0.32959349 125.24478532 -0.33382931 129.21427917 -0.32355309 C130.66952695 -0.32305755 132.12479582 -0.32938327 133.57997894 -0.34310913 C135.57016768 -0.36082774 137.56054272 -0.35133671 139.55078125 -0.34057617 C140.66355312 -0.34296453 141.776325 -0.34535288 142.92281723 -0.34781361 C146.78572419 0.26768761 148.98029081 1.74412099 152.02935791 4.14717102 C153.67623631 7.44092781 153.78067296 10.61281394 153.02935791 14.14717102 C151.23740817 17.01055063 149.02582817 18.6283605 146.02935791 20.14717102 C141.15172972 21.02628929 136.2999343 20.95849845 131.36090088 20.90766907 C129.87045007 20.91416865 128.38000858 20.92323423 126.8895874 20.93466187 C122.85640991 20.95767672 118.82418267 20.94306536 114.79103613 20.92019248 C110.56529795 20.90123536 106.33962186 20.91244091 102.11386108 20.9190979 C95.02059889 20.92543146 87.92771624 20.90720238 80.83453369 20.87446594 C72.63691522 20.83694491 64.44001466 20.83876469 56.24235809 20.86150712 C48.34909501 20.88246019 40.45609698 20.87518183 32.56283951 20.85518837 C29.20642642 20.84720737 25.85023785 20.84918763 22.49383163 20.85921288 C18.54218548 20.869769 14.59137571 20.85562422 10.63986206 20.82246971 C9.19067788 20.81426722 7.741417 20.8145411 6.29224014 20.82394791 C4.31283664 20.83538479 2.33332404 20.81293565 0.35403442 20.78881836 C-0.75316515 20.78563441 -1.86036472 20.78245047 -3.0011158 20.77917004 C-6.92503618 19.94404902 -8.43189177 18.17521864 -10.97064209 15.14717102 C-12.52088673 12.04668174 -12.26056224 9.56822884 -11.97064209 6.14717102 C-8.43141917 0.72036254 -6.27564243 0.02413364 0 0 Z " fill="#050505" transform="translate(189.97064208984375,735.8528289794922)"/>
<path d="M0 0 C10.89 0 21.78 0 33 0 C33 29.37 33 58.74 33 89 C22.11 89 11.22 89 0 89 C0 59.63 0 30.26 0 0 Z " fill="#FDFDFD" transform="translate(665,647)"/>
<path d="M0 0 C11.22 0 22.44 0 34 0 C34 20.46 34 40.92 34 62 C22.78 62 11.56 62 0 62 C0 41.54 0 21.08 0 0 Z " fill="#F8F8F8" transform="translate(470,674)"/>
<path d="M0 0 C4.54054054 2.08108108 4.54054054 2.08108108 6 5 C6.68128376 11.81283762 6.68128376 11.81283762 4.953125 14.82421875 C2.23539379 18.12546283 0.44540862 19.83939904 -3.8125 20.3125 C-7.77698767 19.92382474 -9.21158832 18.78841168 -12 16 C-14.520142 12.51980391 -14.5149903 9.19349243 -14 5 C-10.32275969 -0.5751708 -6.20583803 -1.05679126 0 0 Z " fill="#0E0E0E" transform="translate(651,310)"/>
<path d="M0 0 C5.53846154 3.07692308 5.53846154 3.07692308 7 6 C7.67660495 11.86390959 7.67660495 11.86390959 5.953125 14.7578125 C2.77994548 18.62162521 1.14138407 19.8690215 -3.8125 20.4375 C-7.5201344 20.38347254 -7.95596336 20.03761463 -11 17.4375 C-13.31178236 13.46412407 -13.65744119 11.51990817 -13 7 C-10.09057352 0.76551469 -6.76860923 -0.68833314 0 0 Z " fill="#0D0D0D" transform="translate(150,736)"/>
<path d="M0 0 C5.57894737 3.15789474 5.57894737 3.15789474 7 6 C7.5811138 13.08958838 7.5811138 13.08958838 5.125 16.9375 C1.66547456 20.29527469 -1.05139671 20.46667553 -5.734375 20.40625 C-8 20 -8 20 -11.0625 17.4375 C-13.32738586 13.41915413 -13.80968831 11.53425456 -13 7 C-9.62640648 1.46829886 -6.47828398 -0.62291192 0 0 Z " fill="#0E0E0E" transform="translate(650,380)"/>
<path d="M0 0 C4.27413136 0.38046245 6.97713289 1.53963289 10.0625 4.625 C11.48420682 8.90609471 11.56570773 12.38022298 9.875 16.5625 C6.92570602 19.91859315 5.06385202 20.4975552 0.625 21.0625 C-3.85653826 20.51213565 -5.14602117 19.07329737 -7.9375 15.625 C-9.51205739 12.47588521 -9.28549118 10.10491184 -8.9375 6.625 C-6.35749055 2.19060875 -5.12168992 0.81296665 0 0 Z " fill="#0D0D0D" transform="translate(145.9375,664.375)"/>
<path d="M0 0 C3.4375 2 3.4375 2 6 5 C6.8146508 9.20902913 6.90139011 11.32373066 4.88671875 15.0703125 C2.28108389 18.53981013 0.77933723 19.84960159 -3.5625 20.6875 C-8.77621911 19.64475618 -11.10249978 17.34625033 -14 13 C-14.46362482 8.82737663 -14.4494094 6.71285629 -12.1875 3.125 C-8.5035736 -0.45367136 -4.96166911 -0.50457652 0 0 Z " fill="#0C0C0C" transform="translate(651,239)"/>
<path d="M0 0 C0.33 0 0.66 0 1 0 C1.06939873 12.09111575 1.12275965 24.18218441 1.15543652 36.27345848 C1.17111687 41.88745515 1.19239833 47.50131593 1.22631836 53.11523438 C1.25882735 58.5292762 1.27683514 63.94318702 1.28463173 69.35731888 C1.29019048 71.42667327 1.30104481 73.49602019 1.31719017 75.56531906 C1.33885203 78.45565238 1.34197166 81.3454389 1.34057617 84.23583984 C1.351362 85.09826797 1.36214783 85.96069611 1.3732605 86.84925842 C1.36076355 89.22885132 1.36076355 89.22885132 1 93 C-0.485 93.99 -0.485 93.99 -2 95 C-2.33 94.01 -2.66 93.02 -3 92 C-2.01 91.01 -2.01 91.01 -1 90 C-0.78222956 87.13996411 -0.68856381 84.37392207 -0.68115234 81.51123047 C-0.67110672 80.63311707 -0.6610611 79.75500366 -0.65071106 78.85028076 C-0.61974744 75.93925652 -0.60280745 73.02832478 -0.5859375 70.1171875 C-0.56723644 68.10221554 -0.54766384 66.0872515 -0.5272522 64.07229614 C-0.47581275 58.76227475 -0.43625038 53.45222793 -0.39910889 48.14208984 C-0.35914312 42.72617239 -0.308017 37.31036176 -0.2578125 31.89453125 C-0.16091342 21.26309575 -0.07655355 10.63160009 0 0 Z " fill="#EAEAEA" transform="translate(292,294)"/>
<path d="M0 0 C0.33 0.66 0.66 1.32 1 2 C0.01 3.485 0.01 3.485 -1 5 C-1.66 5 -2.32 5 -3 5 C-3.1546875 5.9590625 -3.1546875 5.9590625 -3.3125 6.9375 C-3.539375 7.618125 -3.76625 8.29875 -4 9 C-4.99 9.33 -5.98 9.66 -7 10 C-7.73323796 12.01508358 -7.73323796 12.01508358 -8 14 C-8.66 14 -9.32 14 -10 14 C-10.33 14.66 -10.66 15.32 -11 16 C-12.32 15.67 -13.64 15.34 -15 15 C-10.05 10.05 -5.1 5.1 0 0 Z " fill="#C7C7C7" transform="translate(301,406)"/>
<path d="M0 0 C1 3 1 3 0 6 C-2.0625 6.6875 -2.0625 6.6875 -4 7 C-4 7.66 -4 8.32 -4 9 C-4.66 9 -5.32 9 -6 9 C-6 9.66 -6 10.32 -6 11 C-6.66 11.66 -7.32 12.32 -8 13 C-8.33 13.66 -8.66 14.32 -9 15 C-10.32 14.34 -11.64 13.68 -13 13 C-8.71 8.71 -4.42 4.42 0 0 Z " fill="#D3D3D3" transform="translate(261,446)"/>
<path d="M0 0 C0.33 0.66 0.66 1.32 1 2 C0.67 2.66 0.34 3.32 0 4 C-0.66 4 -1.32 4 -2 4 C-1.34 2.68 -0.68 1.36 0 0 Z M-2 4 C-2.375 5.9375 -2.375 5.9375 -3 8 C-3.99 8.495 -3.99 8.495 -5 9 C-5.99 10.485 -5.99 10.485 -7 12 C-9.5 13.75 -9.5 13.75 -12 15 C-12.66 14.67 -13.32 14.34 -14 14 C-12.38113585 12.32737283 -10.7547271 10.66204463 -9.125 9 C-8.22007812 8.071875 -7.31515625 7.14375 -6.3828125 6.1875 C-4 4 -4 4 -2 4 Z " fill="#C8C8C8" transform="translate(554,556)"/>
<path d="M0 0 C3.5218253 1.95656961 6.34442785 3.95100975 9 7 C9 7.66 9 8.32 9 9 C9.66 9.33 10.32 9.66 11 10 C10.34 10.66 9.68 11.32 9 12 C5.7 8.7 2.4 5.4 -1 2 C-0.67 1.34 -0.34 0.68 0 0 Z " fill="#E2E2E2" transform="translate(384,299)"/>
<path d="M0 0 C1.125 3.6875 1.125 3.6875 0 6.5 C-2.67495352 9.84369191 -5.12899661 11.17007113 -9 13 C-9.66 12.67 -10.32 12.34 -11 12 C-10.01 11.67 -9.02 11.34 -8 11 C-7.28891701 9.68981559 -6.62746983 8.35222181 -6 7 C-4.99564028 5.71983165 -3.95309739 4.46871878 -2.875 3.25 C-2.33617187 2.63640625 -1.79734375 2.0228125 -1.2421875 1.390625 C-0.62730469 0.70226562 -0.62730469 0.70226562 0 0 Z " fill="#D6D6D6" transform="translate(431,496)"/>
<path d="M0 0 C1 3 1 3 0.375 5 C-1.96767378 8.4075255 -4.86025874 9.72139658 -8.8125 10.6875 C-9.534375 10.790625 -10.25625 10.89375 -11 11 C-7.33333333 7.33333333 -3.66666667 3.66666667 0 0 Z " fill="#1E1E1E" transform="translate(373,461)"/>
<path d="M0 0 C1.32283205 2.64566409 1.32891786 4.0397393 1 7 C-0.17291374 9.46875295 -1.54226163 11.67672947 -3 14 C-3.66 13.34 -4.32 12.68 -5 12 C-5.99 12.495 -5.99 12.495 -7 13 C-5.54331217 10.03216871 -3.98767914 7.13584687 -2.375 4.25 C-1.92898438 3.45078125 -1.48296875 2.6515625 -1.0234375 1.828125 C-0.68570312 1.22484375 -0.34796875 0.6215625 0 0 Z " fill="#232323" transform="translate(391,437)"/>
<path d="M0 0 C0 3.69418201 -1.28179295 5.77836178 -3 9 C-3.99 9 -4.98 9 -6 9 C-6.33 9.66 -6.66 10.32 -7 11 C-9.0625 11.625 -9.0625 11.625 -11 12 C-7.49102731 7.81576108 -3.91939465 3.80411834 0 0 Z " fill="#C8C8C8" transform="translate(522,588)"/>
<path d="M0 0 C0.66 0.66 1.32 1.32 2 2 C-2.48713568 6.5896337 -6.98568224 10.98854579 -12 15 C-12 14.34 -12 13.68 -12 13 C-12.66 12.67 -13.32 12.34 -14 12 C-12.989375 11.505 -11.97875 11.01 -10.9375 10.5 C-6.31783241 7.89790152 -3.2719991 4.09745784 0 0 Z " fill="#CDCDCD" transform="translate(924,808)"/>
<path d="M0 0 C0.66 0 1.32 0 2 0 C2.33 0.99 2.66 1.98 3 3 C2.01 3 1.02 3 0 3 C0 3.99 0 4.98 0 6 C-1.63064764 7.05771739 -3.30280873 8.05273046 -5 9 C-6.75149165 10.58245275 -6.75149165 10.58245275 -8 12 C-8.66 11.67 -9.32 11.34 -10 11 C-9.278125 10.29875 -8.55625 9.5975 -7.8125 8.875 C-5.83067874 6.91006927 -4.05292847 4.86821544 -2.3125 2.6875 C-1.1678125 1.3571875 -1.1678125 1.3571875 0 0 Z " fill="#252525" transform="translate(568,513)"/>
<path d="M0 0 C0.66 0.33 1.32 0.66 2 1 C0.43358249 5.30764815 -1.68336156 9.06171464 -4 13 C-5.0625 11.1875 -5.0625 11.1875 -6 9 C-5.67 8.01 -5.34 7.02 -5 6 C-4.01 6 -3.02 6 -2 6 C-1.34 4.02 -0.68 2.04 0 0 Z " fill="#131313" transform="translate(218,333)"/>
<path d="M0 0 C0.66 0.33 1.32 0.66 2 1 C-0.97 4.3 -3.94 7.6 -7 11 C-7.99 10.67 -8.98 10.34 -10 10 C-6.66666667 6.66666667 -3.33333333 3.33333333 0 0 Z " fill="#DCDCDC" transform="translate(748,530)"/>
<path d="M0 0 C0.33 0.66 0.66 1.32 1 2 C-0.7241302 3.29838176 -2.45453232 4.58843747 -4.1875 5.875 C-5.63189453 6.95394531 -5.63189453 6.95394531 -7.10546875 8.0546875 C-9.71128675 9.80596599 -12.04792144 10.97459794 -15 12 C-10.58990583 7.14889642 -5.41995647 3.651893 0 0 Z " fill="#2F2F2F" transform="translate(209,253)"/>
<path d="M0 0 C0.33 1.32 0.66 2.64 1 4 C0.01 4.33 -0.98 4.66 -2 5 C-2.33 5.66 -2.66 6.32 -3 7 C-3.99 7.33 -4.98 7.66 -6 8 C-6.66 8.66 -7.32 9.32 -8 10 C-8.99 9.67 -9.98 9.34 -11 9 C-9.93458984 8.15115234 -9.93458984 8.15115234 -8.84765625 7.28515625 C-7.92855469 6.55167969 -7.00945312 5.81820313 -6.0625 5.0625 C-5.14597656 4.33160156 -4.22945313 3.60070312 -3.28515625 2.84765625 C-1.59148731 1.48061289 -1.59148731 1.48061289 0 0 Z " fill="#2A2A2A" transform="translate(399,500)"/>
<path d="M0 0 C0.66 0.99 1.32 1.98 2 3 C1.34 3 0.68 3 0 3 C-0.33 3.66 -0.66 4.32 -1 5 C-1.66 5.66 -2.32 6.32 -3 7 C-2.6814823 9.10820797 -2.6814823 9.10820797 -2 11 C-3.32 10.34 -4.64 9.68 -6 9 C-5.52797514 4.75177626 -3.03344482 2.80010291 0 0 Z " fill="#CACACA" transform="translate(247,460)"/>
<path d="M0 0 C0 3 0 3 -1.96875 5.26171875 C-2.8040625 6.06222656 -3.639375 6.86273437 -4.5 7.6875 C-5.3353125 8.49574219 -6.170625 9.30398438 -7.03125 10.13671875 C-7.6809375 10.75160156 -8.330625 11.36648438 -9 12 C-9.66 11.67 -10.32 11.34 -11 11 C-9.92173635 9.72486237 -8.83714481 8.45507431 -7.75 7.1875 C-7.14671875 6.47980469 -6.5434375 5.77210938 -5.921875 5.04296875 C-4.07629602 3.08110329 -2.20054668 1.54330375 0 0 Z " fill="#262626" transform="translate(557,525)"/>
<path d="M0 0 C0.66 0.33 1.32 0.66 2 1 C0.625 2.5 0.625 2.5 -1 4 C-1.66 4 -2.32 4 -3 4 C-3.268125 4.969375 -3.53625 5.93875 -3.8125 6.9375 C-4.204375 7.948125 -4.59625 8.95875 -5 10 C-5.99 10.33 -6.98 10.66 -8 11 C-6.68206814 5.33289301 -4.51290803 3.33562767 0 0 Z " fill="#353535" transform="translate(653,627)"/>
<path d="M0 0 C0.66 0.33 1.32 0.66 2 1 C2 1.66 2 2.32 2 3 C0.13671875 4.5078125 0.13671875 4.5078125 -2.3125 6.125 C-3.11300781 6.66382813 -3.91351562 7.20265625 -4.73828125 7.7578125 C-7 9 -7 9 -10 9 C-6.7 6.03 -3.4 3.06 0 0 Z " fill="#DEDEDE" transform="translate(700,571)"/>
<path d="M0 0 C1.32 0.66 2.64 1.32 4 2 C2.35 3.65 0.7 5.3 -1 7 C-2 4 -2 4 -1.0625 1.8125 C-0.5365625 0.9153125 -0.5365625 0.9153125 0 0 Z " fill="#141414" transform="translate(762,513)"/>
<path d="M0 0 C0 4.26861765 -1.65525557 6.48288335 -4 10 C-4.66 10 -5.32 10 -6 10 C-6.33 9.01 -6.66 8.02 -7 7 C-4.69 4.69 -2.38 2.38 0 0 Z " fill="#151515" transform="translate(265,414)"/>
<path d="M0 0 C0 4.26861765 -1.65525557 6.48288335 -4 10 C-4.66 10 -5.32 10 -6 10 C-6.33 9.01 -6.66 8.02 -7 7 C-4.69 4.69 -2.38 2.38 0 0 Z " fill="#151515" transform="translate(289,390)"/>
<path d="M0 0 C-1.65 1.98 -3.3 3.96 -5 6 C-7 2.25 -7 2.25 -7 0 C-2.25 -1.125 -2.25 -1.125 0 0 Z " fill="#181818" transform="translate(788,496)"/>
<path d="M0 0 C-2 3 -2 3 -4.1640625 3.51171875 C-4.97617188 3.56972656 -5.78828125 3.62773437 -6.625 3.6875 C-7.85089844 3.78611328 -7.85089844 3.78611328 -9.1015625 3.88671875 C-9.72804687 3.92410156 -10.35453125 3.96148437 -11 4 C-4.14893617 -1.38297872 -4.14893617 -1.38297872 0 0 Z " fill="#282828" transform="translate(257,281)"/>
<path d="M0 0 C0.33 0.66 0.66 1.32 1 2 C0.67 2.66 0.34 3.32 0 4 C-0.66 4 -1.32 4 -2 4 C-1.34 2.68 -0.68 1.36 0 0 Z M-2 4 C-2.33 5.65 -2.66 7.3 -3 9 C-4.32 8.34 -5.64 7.68 -7 7 C-4.25 4 -4.25 4 -2 4 Z " fill="#CECECE" transform="translate(562,548)"/>
<path d="M0 0 C0.66 0.33 1.32 0.66 2 1 C1.67 1.99 1.34 2.98 1 4 C0.01 4 -0.98 4 -2 4 C-2.33 4.99 -2.66 5.98 -3 7 C-5.5625 8.1875 -5.5625 8.1875 -8 9 C-7.04270084 7.87411986 -6.08412105 6.7493285 -5.125 5.625 C-4.59132813 4.99851562 -4.05765625 4.37203125 -3.5078125 3.7265625 C-2.38567993 2.44163349 -1.20628025 1.20628025 0 0 Z " fill="#1F1F1F" transform="translate(578,504)"/>
<path d="M0 0 C0.33 0.99 0.66 1.98 1 3 C-0.65 4.65 -2.3 6.3 -4 8 C-4.99 7.67 -5.98 7.34 -7 7 C-4.69 4.69 -2.38 2.38 0 0 Z " fill="#C7C7C7" transform="translate(500,610)"/>
<path d="M0 0 C0.66 0.66 1.32 1.32 2 2 C2.804375 2.7425 2.804375 2.7425 3.625 3.5 C5 5 5 5 5 7 C1.62496331 5.8141763 -0.64722731 4.72426311 -3 2 C-2.01 1.34 -1.02 0.68 0 0 Z " fill="#2B2B2B" transform="translate(671,575)"/>
<path d="M0 0 C0 0.99 0 1.98 0 3 C-2.8125 5.75 -2.8125 5.75 -6 8 C-6.99 7.67 -7.98 7.34 -9 7 C-6.03 4.69 -3.06 2.38 0 0 Z " fill="#252525" transform="translate(693,551)"/>
<path d="M0 0 C0.66 0.33 1.32 0.66 2 1 C-0.5162178 3.60608273 -3.05134359 5.89381685 -6 8 C-6 6.33333333 -6 4.66666667 -6 3 C-4.03533587 1.93224776 -2.03144641 0.93446535 0 0 Z " fill="#272727" transform="translate(350,478)"/>
<path d="M0 0 C0.66 0.33 1.32 0.66 2 1 C1.195625 1.886875 0.39125 2.77375 -0.4375 3.6875 C-2.7039159 6.38287032 -3.68417366 8.42063478 -4 12 C-4.33 12 -4.66 12 -5 12 C-5.35338623 9.03155565 -5.5417682 6.84401782 -3.88671875 4.265625 C-2.64496832 2.79651181 -1.32662082 1.39295186 0 0 Z " fill="#3B3B3B" transform="translate(683,310)"/>
<path d="M0 0 C1 3 1 3 0 6 C-2.47739354 6.90837763 -4.33579484 7 -7 7 C-4.69 4.69 -2.38 2.38 0 0 Z " fill="#C3C3C3" transform="translate(261,446)"/>
<path d="M0 0 C3.465 1.98 3.465 1.98 7 4 C6.01 4.66 5.02 5.32 4 6 C2.02 5.01 0.04 4.02 -2 3 C-1.34 2.67 -0.68 2.34 0 2 C0 1.34 0 0.68 0 0 Z " fill="#171717" transform="translate(391,249)"/>
<path d="M0 0 C0.33 0 0.66 0 1 0 C1 1.65 1 3.3 1 5 C-1 6 -1 6 -4 6 C-4.66 5.67 -5.32 5.34 -6 5 C-5.195625 4.731875 -4.39125 4.46375 -3.5625 4.1875 C-2.716875 3.795625 -1.87125 3.40375 -1 3 C-0.67 2.01 -0.34 1.02 0 0 Z " fill="#363636" transform="translate(907,797)"/>
<path d="M0 0 C2.88575819 0.39803561 3.82189513 0.79009069 5.75 3.0625 C6.1625 3.701875 6.575 4.34125 7 5 C5.33333333 5 3.66666667 5 2 5 C2 4.01 2 3.02 2 2 C1.34 2 0.68 2 0 2 C0 1.34 0 0.68 0 0 Z " fill="#111111" transform="translate(386,306)"/>
<path d="M0 0 C0.66 0.33 1.32 0.66 2 1 C0.25 5.875 0.25 5.875 -2 7 C-2.66 6.34 -3.32 5.68 -4 5 C-2.68 3.35 -1.36 1.7 0 0 Z " fill="#2A2A2A" transform="translate(456,656)"/>
<path d="M0 0 C1.125 3.75 1.125 3.75 0 6 C-0.66 6 -1.32 6 -2 6 C-2.66 6.66 -3.32 7.32 -4 8 C-4.33 7.34 -4.66 6.68 -5 6 C-3.35 4.02 -1.7 2.04 0 0 Z " fill="#D2D2D2" transform="translate(277,430)"/>
<path d="M0 0 C2.31 0.33 4.62 0.66 7 1 C6.34 2.32 5.68 3.64 5 5 C3.35 3.35 1.7 1.7 0 0 Z " fill="#222222" transform="translate(376,322)"/>
<path d="M0 0 C0.33 0.66 0.66 1.32 1 2 C-0.98 4.97 -0.98 4.97 -3 8 C-3.99 7.34 -4.98 6.68 -6 6 C-4.02 4.02 -2.04 2.04 0 0 Z " fill="#C3C3C3" transform="translate(202,284)"/>
<path d="M0 0 C2.5 1.375 2.5 1.375 5 3 C5 3.66 5 4.32 5 5 C2.69 4.34 0.38 3.68 -2 3 C-1 1 -1 1 0 0 Z " fill="#EBEBEB" transform="translate(62,816)"/>
<path d="M0 0 C1.65 1.65 3.3 3.3 5 5 C1.09161134 5 -0.11594107 3.49432124 -3 1 C-2.01 0.67 -1.02 0.34 0 0 Z " fill="#272727" transform="translate(661,570)"/>
<path d="M0 0 C0 3.51716303 -0.82445585 4.37121748 -3 7 C-4.32 6.67 -5.64 6.34 -7 6 C-4.69 4.02 -2.38 2.04 0 0 Z " fill="#2F2F2F" transform="translate(705,540)"/>
<path d="M0 0 C1.65 1.32 3.3 2.64 5 4 C4.34 4 3.68 4 3 4 C3 4.66 3 5.32 3 6 C2.01 5.67 1.02 5.34 0 5 C-0.33 4.01 -0.66 3.02 -1 2 C-0.67 1.34 -0.34 0.68 0 0 Z " fill="#121212" transform="translate(212,505)"/>
<path d="M0 0 C2.475 0.99 2.475 0.99 5 2 C4.01 2.99 3.02 3.98 2 5 C1.01 4.67 0.02 4.34 -1 4 C-0.67 2.68 -0.34 1.36 0 0 Z " fill="#161616" transform="translate(363,489)"/>
<path d="M0 0 C0 0.99 0 1.98 0 3 C-3 5 -3 5 -5 6 C-5.33 5.01 -5.66 4.02 -6 3 C-2.25 0 -2.25 0 0 0 Z " fill="#282828" transform="translate(776,482)"/>
<path d="M0 0 C0.66 0.66 1.32 1.32 2 2 C0.33333333 3.66666667 -1.33333333 5.33333333 -3 7 C-3.99 6.67 -4.98 6.34 -6 6 C-4.02 4.02 -2.04 2.04 0 0 Z " fill="#2D2D2D" transform="translate(380,454)"/>
<path d="M0 0 C0.33 0.66 0.66 1.32 1 2 C-0.8125 5 -0.8125 5 -3 8 C-3.99 8 -4.98 8 -6 8 C-4.02 5.36 -2.04 2.72 0 0 Z " fill="#CDCDCD" transform="translate(187,301)"/>
<path d="M0 0 C0.66 1.32 1.32 2.64 2 4 C0.68 4.33 -0.64 4.66 -2 5 C-2 5.66 -2 6.32 -2 7 C-2.66 6.67 -3.32 6.34 -4 6 C-2.68 4.02 -1.36 2.04 0 0 Z " fill="#303030" transform="translate(169,291)"/>
<path d="M0 0 C0.66 0.99 1.32 1.98 2 3 C1.01 3.66 0.02 4.32 -1 5 C-1.73343428 8.06556598 -1.73343428 8.06556598 -2 11 C-2.33 11 -2.66 11 -3 11 C-3.36923077 4.6 -3.36923077 4.6 -1.5 1.5625 C-1.005 1.046875 -0.51 0.53125 0 0 Z " fill="#414141" transform="translate(681,241)"/>
<path d="M0 0 C0.99 0.66 1.98 1.32 3 2 C3.40843923 4.71203652 3.13336867 7.2437142 3 10 C2.67 10 2.34 10 2 10 C1.896875 9.071875 1.79375 8.14375 1.6875 7.1875 C0.9929808 3.96745642 0.52259061 2.97420135 -2 1 C-1.34 0.67 -0.68 0.34 0 0 Z " fill="#202020" transform="translate(654,242)"/>
</svg>
