<?xml version="1.0" encoding="UTF-8"?>
<svg version="1.1" xmlns="http://www.w3.org/2000/svg" width="500" height="500">
<path d="M0 0 C165 0 330 0 500 0 C500 165 500 330 500 500 C335 500 170 500 0 500 C0 335 0 170 0 0 Z " fill="#000000" transform="translate(0,0)"/>
<path d="M0 0 C82.5 0 165 0 250 0 C250 82.5 250 165 250 250 C167.5 250 85 250 0 250 C0 167.5 0 85 0 0 Z " fill="#000000" transform="translate(250,250)"/>
<path d="M0 0 C79.86 0 159.72 0 242 0 C242 82.5 242 165 242 250 C162.14 250 82.28 250 0 250 C0 167.5 0 85 0 0 Z " fill="#000000" transform="translate(0,250)"/>
<path d="M0 0 C82.5 0 165 0 250 0 C250 79.86 250 159.72 250 242 C167.5 242 85 242 0 242 C0 162.14 0 82.28 0 0 Z " fill="#000000" transform="translate(250,0)"/>
<path d="M0 0 C2.64 0 5.28 0 8 0 C8 79.86 8 159.72 8 242 C90.5 242 173 242 258 242 C258 244.64 258 247.28 258 250 C175.5 250 93 250 8 250 C8 332.5 8 415 8 500 C5.36 500 2.72 500 0 500 C0 417.5 0 335 0 250 C-79.86 250 -159.72 250 -242 250 C-242 247.36 -242 244.72 -242 242 C-162.14 242 -82.28 242 0 242 C0 162.14 0 82.28 0 0 Z " fill="#FEFEFE" transform="translate(242,0)"/>
</svg>
