<?xml version="1.0" encoding="UTF-8"?>
<svg version="1.1" xmlns="http://www.w3.org/2000/svg" width="500" height="500">
<path d="M0 0 C165 0 330 0 500 0 C500 165 500 330 500 500 C335 500 170 500 0 500 C0 335 0 170 0 0 Z " fill="#000000" transform="translate(0,0)"/>
<path d="M0 0 C54.12 0 108.24 0 164 0 C164 54.12 164 108.24 164 164 C109.88 164 55.76 164 0 164 C0 109.88 0 55.76 0 0 Z " fill="#000000" transform="translate(0,169)"/>
<path d="M0 0 C53.79 0 107.58 0 163 0 C163 53.79 163 107.58 163 163 C109.21 163 55.42 163 0 163 C0 109.21 0 55.42 0 0 Z " fill="#000000" transform="translate(170,0)"/>
<path d="M0 0 C53.79 0 107.58 0 163 0 C163 53.46 163 106.92 163 162 C109.21 162 55.42 162 0 162 C0 108.54 0 55.08 0 0 Z " fill="#000000" transform="translate(0,338)"/>
<path d="M0 0 C53.46 0 106.92 0 162 0 C162 53.46 162 106.92 162 162 C108.54 162 55.08 162 0 162 C0 108.54 0 55.08 0 0 Z " fill="#000000" transform="translate(338,338)"/>
<path d="M0 0 C53.13 0 106.26 0 161 0 C161 53.13 161 106.26 161 161 C107.87 161 54.74 161 0 161 C0 107.87 0 54.74 0 0 Z " fill="#000000" transform="translate(170,338)"/>
<path d="M0 0 C53.13 0 106.26 0 161 0 C161 53.13 161 106.26 161 161 C107.87 161 54.74 161 0 161 C0 107.87 0 54.74 0 0 Z " fill="#000000" transform="translate(339,0)"/>
<path d="M0 0 C53.13 0 106.26 0 161 0 C161 52.8 161 105.6 161 160 C107.87 160 54.74 160 0 160 C0 107.2 0 54.4 0 0 Z " fill="#000000" transform="translate(339,170)"/>
<path d="M0 0 C52.8 0 105.6 0 160 0 C160 53.13 160 106.26 160 161 C107.2 161 54.4 161 0 161 C0 107.87 0 54.74 0 0 Z " fill="#000000" transform="translate(170,169)"/>
<path d="M0 0 C1.98 0 3.96 0 6 0 C6 53.79 6 107.58 6 163 C59.79 163 113.58 163 169 163 C169 109.21 169 55.42 169 0 C170.98 0 172.96 0 175 0 C175 53.13 175 106.26 175 161 C228.13 161 281.26 161 336 161 C336 163.97 336 166.94 336 170 C282.87 170 229.74 170 175 170 C175 222.8 175 275.6 175 330 C228.13 330 281.26 330 336 330 C336 332.64 336 335.28 336 338 C282.54 338 229.08 338 174 338 C174 391.46 174 444.92 174 500 C116.25 500 58.5 500 -1 500 C-1 446.54 -1 393.08 -1 338 C-54.79 338 -108.58 338 -164 338 C-164 336.35 -164 334.7 -164 333 C-109.88 333 -55.76 333 0 333 C0 278.88 0 224.76 0 169 C-54.12 169 -108.24 169 -164 169 C-164 167.35 -164 165.7 -164 164 C-109.88 164 -55.76 164 0 164 C0 109.88 0 55.76 0 0 Z M6 169 C6 222.13 6 275.26 6 330 C58.8 330 111.6 330 166 330 C166 276.87 166 223.74 166 169 C113.2 169 60.4 169 6 169 Z M6 338 C6 391.13 6 444.26 6 499 C59.13 499 112.26 499 167 499 C167 445.87 167 392.74 167 338 C113.87 338 60.74 338 6 338 Z " fill="#F6F6F6" transform="translate(164,0)"/>
</svg>
