<svg id="Logo" xmlns="http://www.w3.org/2000/svg" viewBox="0 0 512 512"><path d="M91.56,445.85c.67,2.49,1.39,5.38.89,7.76A227.51,227.51,0,0,0,85,499.91H61.35l1.82-57.44a183.44,183.44,0,0,0,18.41-3.05c-3.55-5.1-6.93-9.65-10.81-15.25a64.86,64.86,0,0,1,6.77,3.55A33,33,0,0,1,91.56,445.85Z"/><path d="M126.22,438c.83,9.15,1.38,18.8,0,27.72a215.11,215.11,0,0,0-2.5,34.16H109.31c1.22-4.05,2.71-8.1,4.27-12.14,7.76-19.8,7.93-39.59,4.21-59.83-.66-3.6-1.55-6.93-2.55-11.7C122.17,422.67,125.55,430.1,126.22,438Z"/><path d="M237.33,261.54c-.72-.72-1.49-1.6-2.77-3.16a5.91,5.91,0,0,1,7.26-3.54c2.5.77,4.72,3,4.05,7a30.86,30.86,0,0,1-4.1,1.11,4.31,4.31,0,0,1-4.44-1.39Z"/><path d="M149.73,499.91c9.81-41.25,29.77-86.88,49.18-102.24-3.88,6.43-7.6,12.86-12,20.29,46.3-15.08,68.65-58.16,63.38-113.11-6.77,2.55-10.15,8.26-13,14.69-.67-11.31,6.6-19.9,17.24-22.45,12.2-3,24.18-6.6,36.21-10.48,8.43-2.72,11.14-10.65,6.21-18.25-1.83-3-5.21-5.76-8.43-7.65-3.55-1.83-7.76-2.82-11.81-3.88-9-2.33-18-4.88-27.06-6.76-7.59-1.5-15.58-2.17-24-3.39,1,4.77,1.67,8.16,2.39,11.7a.73.73,0,0,0-.56.17c-2-3.22-3.71-6.43-5.87-9.48-4.61-6.77-10.65-10.81-19.13-10.65-3.22.17-4.88,1.33-4.05,4.38,1.5,5.27,3.38,10.48,5.6,16.91-5.43,6.44-5.77,15.59-5.27,25.34.67,19.63-1.83,39.09-9.81,57.34-5.55,12.47-13.36,23-25.51,29.94,3.05-4.11,6.1-8,8.76-12.2a82.77,82.77,0,0,0,6.77-13.7c-6.21,3.22-12.64,5.27-19.57,4.88-3-.16-4.77-1.16-6.1-3.88-8.1-16.52-26.56-32.1-43.25-37v29.72c-1.89-6.93-3-13-5.1-18.74C97.83,302.8,84.3,290,68.28,283.89l5-158.91C75.37,62.1,126.38,12.09,187.6,12.09h251l12,379.14c-13.37-78.29-55.28-177.26-178.26-226,0,0,52.61-46.47,62.26-107.18H182.55c-39.14,0-58,49.51-28.33,75.52,20,17.57,48.07,36.2,87.16,53.28,95.54,41.7,167.84,115.28,154.42,205a153.18,153.18,0,0,1-10.09,36.93c-9.09,22.95-23.84,46.74-45.19,71.13Z"/><path d="M245.87,261.82a30.86,30.86,0,0,1-4.1,1.11,4.31,4.31,0,0,1-4.44-1.39c-.72-.72-1.49-1.6-2.77-3.16a5.91,5.91,0,0,1,7.26-3.54C244.32,255.61,246.54,257.89,245.87,261.82Z"/><path d="M245.87,261.82a30.86,30.86,0,0,1-4.1,1.11,4.31,4.31,0,0,1-4.44-1.39c-.72-.72-1.49-1.6-2.77-3.16a5.91,5.91,0,0,1,7.26-3.54C244.32,255.61,246.54,257.89,245.87,261.82Z"/></svg>